<svg width="193" height="193" fill="none" xmlns="http://www.w3.org/2000/svg"><path d="M38.432 166.198c-.344 0-.687-.138-.962-.344-.687-.549-.824-1.511-.275-2.198.893-1.1-1.305-3.779-3.572-6.527-4.947-5.909-12.367-14.841-2.2-25.147 6.39-6.458 6.253-9.138 5.91-10.031-.619-1.511-3.573-1.855-4.604-1.855h-.068c-.894 0-1.58-.687-1.58-1.58s.686-1.58 1.58-1.58c.618 0 5.977.068 7.557 3.779 1.374 3.229-.756 7.626-6.596 13.466-8.107 8.245-2.542 14.909 2.405 20.886 3.16 3.779 6.115 7.421 3.642 10.512-.344.413-.825.619-1.237.619z" fill="#C8DBF4"/><path d="M15.484 151.907h33.803L41.8 184.13H22.973l-7.489-32.223z" fill="#D4E4F8"/><path d="M15.14 153.35h34.491c.824 0 1.443-.619 1.443-1.443 0-.825-.619-1.443-1.443-1.443h-34.49c-.825 0-1.443.618-1.443 1.443 0 .824.618 1.443 1.443 1.443z" fill="#9FC1F4"/><path d="M44.272 117.966l-31.948 10.581S.78 120.714 9.164 117.21c-3.985-6.801-4.535-20.13 8.382-23.978C30.394 89.385 29.5 108.141 29.5 108.141s15.871-16.764 15.116 3.161c3.023-.825 15.802 2.198-.344 6.664z" fill="#C8DBF4"/><path d="M17.614 132.463h38.75s10.238-7.214-.48-6.87c2.13-9.207-3.848-19.307-17.383-19.65-13.535-.344-8.794 14.634-8.794 14.634s-22.742-5.428-15.872 5.771c-11.199.481-5.427 3.367 3.78 6.115z" fill="#D4E4F8"/><path d="M48.532 134.524l-30.437 1.1c-1.511.068-2.954-.687-3.985-2.13-1.168-1.649-1.443-3.642 3.435-4.26-1.58-4.809 1.855-13.191 14.497-13.878 12.573-.619 6.252 10.992 6.252 10.992s19.032-8.313 12.574 4.054c2.817-.137 13.397 3.573-2.336 4.122z" fill="#C8DBF4"/><path d="M118.33 187.34l2.88-84.232-2.887.396-2.688 84.205 2.695-.369zm42.237-.093l1.032-84.23 2.645.516-.844 84.267-2.833-.553zm20.517-.035l-3.55-83.815 2.344.208 3.549 83.815-2.343-.208z" fill="#9FC1F4"/><path d="M180.28 100.336h-79.566v3.527h79.566v-3.527z" fill="#C8DBF4"/><path d="M98.82 186.311l8.186-83.708-3.034.136-7.984 83.7 2.832-.128z" fill="#9FC1F4"/><path opacity=".2" d="M180.209 100.336h-18.454v3.527h18.454v-3.527z" fill="#3A7CD5"/><path d="M142.315 73.432H173.8c1.037 0 1.75 1.067 1.555 2.379l-2.656 22.064c-.129 1.313-1.101 2.379-2.138 2.379h-31.485c-1.037 0-1.749-1.066-1.555-2.379l2.656-22.064c.194-1.312 1.166-2.379 2.138-2.379z" fill="#9DB6FE"/><path d="M141.862 73.432h31.485c1.037 0 1.749 1.067 1.555 2.379l-2.656 22.064c-.13 1.313-1.102 2.379-2.138 2.379h-31.486c-1.036 0-1.749-1.066-1.554-2.379l2.656-22.064c.129-1.312 1.101-2.379 2.138-2.379z" fill="#9DB6FE"/><path opacity=".99" d="M139.251 99.058c-.312 0-.562-.158-.75-.395-.187-.316-.249-.632-.187-1.027l2.56-21.266c.125-.949.812-1.66 1.499-1.66h30.345c.313 0 .562.158.75.395.187.316.249.632.187 1.028l-2.56 21.265c-.125.95-.812 1.66-1.499 1.66h-30.345z" fill="#fff"/><mask id="a" maskUnits="userSpaceOnUse" x="138" y="74" width="36" height="26"><path opacity=".99" d="M139.251 99.058c-.312 0-.562-.158-.75-.395-.187-.316-.249-.632-.187-1.027l2.56-21.266c.125-.949.812-1.66 1.499-1.66h30.345c.313 0 .562.158.75.395.187.316.249.632.187 1.028l-2.56 21.265c-.125.95-.812 1.66-1.499 1.66h-30.345z" fill="#fff"/></mask><g mask="url(#a)"><path d="M148.348 99.352l3.628-24.463h-5.24l-2.15 12.121-1.21 12.342h4.972z" fill="#F1F4FA"/></g><path d="M129.423 99.352h41.786c.389 0 .648.41.583.902h-43.147c.065-.492.389-.902.778-.902z" fill="#9DB6FE"/><path d="M97.09 177.357l-5.167 2.543-6.48-10.827 5.25-2.543 6.397 10.827z" fill="#FFB573"/><path d="M91.266 179.079l6.07-2.624c.246-.082.493 0 .575.164l2.624 4.019c.246.41 0 1.066-.492 1.23-2.133.903-3.199 1.231-5.906 2.297-1.64.738-5.577 2.461-7.874 3.445-2.215.984-3.28-.984-2.46-1.558 3.855-2.625 5.577-4.594 6.561-6.316.328-.328.574-.575.902-.657z" fill="#263238"/><path opacity=".2" d="M92.907 170.303l-5.167 2.542 3.28 5.578 5.414-2.297-3.527-5.823z" fill="#000"/><path d="M89.052 89.099s-16.897 22.556-21.9 33.548c-5.496 12.057 20.752 52.823 20.752 52.823l9.597-2.789S75.719 132.53 78.67 128.1c8.203-12.385 31.953-38.755 31.953-38.755l-21.572-.246z" fill="#2D1686"/><path opacity=".3" d="M95.368 106.734c-4.593 6.726-6.562 18.701-6.808 26.576 2.625-4.84 5.413-9.925 8.038-14.601 1.723-4.429 3.445-8.776 5.086-12.467-.41-2.543-2.789-4.594-6.316.492z" fill="#000"/><path d="M98.485 173.994l-10.5 4.757-3.034-3.117 12.468-5.659 1.066 4.019z" fill="#2D1686"/><path d="M100.453 43.658a79.432 79.432 0 01-3.28 5.905 81.92 81.92 0 01-3.692 5.578l-1.968 2.707c-.739.902-1.395 1.804-2.133 2.624-1.476 1.723-3.035 3.446-4.757 5.086-.41.41-.903.82-1.313 1.23-.492.41-.902.82-1.394 1.149l-1.477 1.066c-.164.082-.082.082-.656.41-.41.246-.82.41-1.23.574-.902.329-1.805.41-2.707.328-.902-.082-1.805-.41-2.625-.902a6.196 6.196 0 01-1.148-.902 3.564 3.564 0 01-.492-.574c-.164-.164-.328-.41-.328-.492-.41-.657-.739-1.395-.985-1.969-.574-1.312-.82-2.46-1.148-3.61-.574-2.378-.82-4.592-.984-6.807-.164-2.215-.246-4.43-.164-6.726.082-1.477 1.312-2.625 2.788-2.543 1.23.082 2.297-.328 2.543.82.985 3.938 2.05 9.351 3.445 12.878.328.82.739 1.723 1.149 2.297.164.328.41.574.574.82.082.082 0-.082-.082-.164s-.164-.164-.164-.246c-.164-.164-.328-.328-.492-.41-.329-.246-.739-.328-1.149-.41-.41-.082-.738 0-1.148.082-.328.082-.902.492-.492.164l.984-.902c.656-.657 1.312-1.313 1.969-2.051 2.542-2.87 4.84-6.152 7.054-9.597 1.066-1.722 2.05-3.937 3.035-5.66 1.066-1.722 1.804-3.855 2.706-5.577 1.559-1.805 5.742-1.805 7.71-1.313 2.625.82 3.282 4.594 2.051 7.137z" fill="#4E33B5"/><path d="M88.724 54.485c-.41 1.886-.82 4.84-.82 7.382l.82-.82a67.675 67.675 0 005.578-6.562c.738-.902 1.394-1.887 2.05-2.871.41-1.066.738-2.05 1.148-3.117.082-.328.246-.656.329-1.066-2.707-1.313-7.547 0-9.105 7.054z" fill="#2D1686"/><path d="M72.565 45.79l-2.953-3.199-2.953 1.395s.492 1.968 1.559 4.019c.656 1.312 2.378 1.64 3.445.574a3.24 3.24 0 00.902-2.789z" fill="#FFAE73"/><path d="M80.783 169.283l-2.38 11.988 5.874 1.166 2.38-11.988-5.874-1.166z" fill="#FFB573"/><path d="M78.23 180.642l6.643 1.312c.246.082.41.247.328.411l-.902 4.593c-.082.492-.738.82-1.23.738-2.297-.492-3.363-.82-6.234-1.394-1.804-.328-6.726-1.149-9.269-1.641-2.378-.492-1.804-2.625-.738-2.543 4.921.083 8.367-.492 10.335-1.312.328-.246.738-.246 1.067-.164z" fill="#263238"/><path opacity=".2" d="M85.201 175.884l-5.823-1.148-1.23 6.152 5.905 1.23 1.148-6.234z" fill="#000"/><path d="M100.704 89.267s-9.76 26.904-12.631 38.223c-3.2 12.386-12.058 49.953-12.058 49.953l10.745 1.641s9.105-33.568 13.944-45.626c5.033-21.02 19.458-29.263 20.506-43.945-6.562 0-20.506-.246-20.506-.246z" fill="#2D1686"/><path d="M87.17 181.134l-12.187-2.871.864-3.414 12.718 3.414-1.395 2.871z" fill="#2D1686"/><path d="M88.428 89.594s-.87.604-1.612 3.613c0 0 30.399 1.051 33.772.333 0 0 .719-3.32.066-3.475-.692-.159-32.226-.47-32.226-.47z" fill="#273037"/><path d="M103.926 89.579s-4.458-.141-5.999-.036l-.532 4.062 5.839.254.692-4.28z" fill="#69737A"/><path d="M92.497 40.13c.656-2.05 2.46-3.609 4.511-3.937 1.64-.246 2.461-.574 4.512-.656 3.609-.246 9.596 0 13.698.246 2.378.164 4.839.492 6.808.82h.082c2.132.328 3.527 2.379 3.117 4.512-1.067 5.577-3.938 15.092-4.43 24.197-.656 11.975-8.448 13.862.492 24.443l-32.317-.574c-.41-8.285 3.691-15.257 4.347-21.654 1.64-14.929-2.296-22.721-.82-27.397z" fill="#fff"/><path d="M114.397 35.127c-1.64 6.316-7.956 16.487-9.268 34.04.492 9.597 2.296 23.178 3.445 29.658h15.174c.328-3.035-4.347-19.733-2.871-29.658 1.395-9.597 5.66-21.408 6.808-27.232.41-2.215.082-4.02.082-4.02l-4.019-.983c-2.05-.329-5.495-1.477-7.956-1.641-.492-.082-.984-.164-1.395-.164z" fill="#4E33B5"/><path d="M100.699 37.506c5.168 2.87 14.109-.246 14.109-.246s-1.395-2.871-1.313-8.53v-.903c-.574-.246-1.558-.82-2.707-1.395l-5.249 2.707s-.328 1.64-.492 4.43c0 .492-.082 1.066-.082 1.64-2.543.82-4.266 2.297-4.266 2.297z" fill="#FFAE73"/><path d="M105.621 29.221s-.328 1.64-.492 4.43c4.511-.247 7.382-3.446 8.366-4.922v-.902c-.574-.246-1.558-.82-2.707-1.395l-5.167 2.79z" fill="#D79573"/><path d="M103.662 31.534s10.358.99 10.808-5.494c.541-6.485 2.162-10.628-4.413-11.53-6.575-.9-8.016 1.442-8.737 3.604-.72 2.071-.36 12.97 2.342 13.42z" fill="#FFAE73"/><path d="M113.57 28.561s.63-2.071-.27-3.602c0 0 .991-1.982.27-2.522-.721-.54-1.351 1.17-1.711.81-.271-.36-1.712-2.161-1.892-4.323-.18-2.162-7.566-1.531-8.376-1.441-.901.18-3.063-1.801-3.243-2.972 0 0 1.712-.72 2.522-1.441.811-.63 6.755-5.134 12.43-1.982 5.674 3.243 5.764 6.395 4.773 8.827-.99 2.432-1.711 8.466-4.503 8.646z" fill="#232729"/><path opacity=".2" d="M118.991 82.701c-.082 0-.164 0-.164-.082-3.445-4.593-4.758-8.94-4.758-8.94 0-.083 0-.247.164-.247.082 0 .246 0 .246.164 0 .082 1.313 4.266 4.676 8.859a.25.25 0 010 .328c-.082-.082-.164-.082-.164-.082z" fill="#fff"/><path d="M121.288 46.282c-1.395 5.742-1.149 12.96 0 20.178 1.886-9.843 3.034-17.963 4.265-24.525-1.395-.902-3.117-.246-4.265 4.347z" fill="#2D1686"/><path d="M89.38 41.77c.82-2.378 1.64-5.249 1.64-5.249s10.5-1.394 11.32-1.394c-1.805 5.988-3.527 35.762-3.527 35.762s-3.855 20.213-7.71 28.005l-8.613-1.483c4.265-8.858 8.203-23.815 8.613-29.556.41-5.66-3.117-22.311-1.723-26.084z" fill="#4E33B5"/><path d="M107.835 38.162l-1.148 1.066 3.527 1.313-.41-1.313-1.969-1.066z" fill="#E0E0E0"/><path d="M108.82 41.935s0-3.035-1.313-3.773c4.594-1.23 7.629-3.691 7.629-3.691l2.05.82s-1.394 3.445-8.366 6.644z" fill="#fff"/><path d="M105.867 38.08c.246-.082.492.082.656.246l.574.984-3.691.328.656-.984c.082-.164.246-.246.328-.246l1.477-.328z" fill="#E0E0E0"/><path d="M103.16 42.427s1.887-2.953 4.676-4.265c-1.969-.574-3.281-3.527-3.281-3.527l-1.969.41c-.082 0-2.297 4.347.574 7.382z" fill="#fff"/><path d="M127.85 38.244s.82 3.527 1.312 4.675c.492 1.148.902 2.87 1.312 4.101.821 2.379 1.149 4.43 1.805 6.89 1.394 4.84 2.461 9.843 2.871 15.175.328 5.167.246 10.007 0 14.928a214.427 214.427 0 01-1.231 14.6c-.164 1.477-1.476 2.461-2.953 2.297-1.23-.164-2.132-1.148-2.296-2.296-.574-4.758-.985-9.597-1.395-14.355-.246-2.378-.41-4.757-.656-7.136-.246-2.379-.492-4.675-.82-6.89-.656-4.347-1.969-8.694-3.445-13.124a208.191 208.191 0 00-2.297-6.562c-.738-2.214-1.64-4.429-2.461-6.48l-.082-.082c-1.066-2.706.082-6.89 3.035-6.89 2.871-.164 7.301 1.149 7.301 1.149z" fill="#4E33B5"/><path d="M128.67 98.04l-3.445 1.64 5.823 2.051s3.938-1.231 2.051-3.363l-1.066-.328c-1.641-.575-2.461-.493-3.363 0z" fill="#FFAE73"/><path d="M123.338 103.371l6.07 1.148 1.641-2.788-5.824-2.051-1.887 3.691z" fill="#FFAE73"/><path d="M107.179 38.49s.575 2.87.246 3.773c0 0-1.886.492-3.116-.41-.083 0 1.066-1.723 2.87-3.363z" fill="#E34208"/><path d="M105.047 41.607s-5.004 10.335-5.25 22.31c-.246 12.386.574 16.98.574 16.98l2.379 3.444 1.476-3.937s-2.296-15.995 1.149-31.169c.656-2.707 1.64-7.956 1.64-7.956l-1.968.328z" fill="#E34208"/><path d="M70.104 47.595s-1.722-.657-2.87-1.559c-1.149-.984-3.117-3.363-3.446-3.609-.328-.164-3.28-7.218-4.019-7.628-.738-.41 1.067-.82 2.297.984 1.23 1.805 3.609 4.347 4.757 4.511 1.149.165.739-1.804 1.64-2.05.821-.164.739.082.985.328.328.328-.82 2.379 0 3.28.82.903.574 2.298 1.148 3.036.575.738.657-.328.657-.328l-1.149 3.035z" fill="#FFAE73"/><path d="M34.24 2.201h37.672c4.348 0 8.11 3.527 8.345 7.875l1.41 22.568.47 7.346-7.757-7.346H36.12c-4.348 0-8.11-3.526-8.344-7.875l-.94-14.692C26.6 5.726 29.89 2.2 34.24 2.2z" fill="#9DB6FE"/><path d="M36.18 12.956h35.614c.705 0 1.293-.588 1.234-1.293a1.411 1.411 0 00-1.41-1.293H36.062c-.705 0-1.293.588-1.234 1.293.059.705.646 1.293 1.352 1.293zm.411 6.054h35.615c.705 0 1.293-.588 1.234-1.293a1.411 1.411 0 00-1.41-1.293H36.414c-.705 0-1.293.587-1.234 1.293.059.705.705 1.293 1.41 1.293zm12.518 6.053h23.508c.705 0 1.293-.588 1.234-1.293a1.411 1.411 0 00-1.41-1.293H48.933c-.706 0-1.293.588-1.234 1.293.058.705.705 1.293 1.41 1.293z" fill="#fff"/><path d="M47.581 39.931H9.91c-4.35 0-7.64 3.527-7.346 7.876L3.62 64.38l.47 7.346 6.877-7.346h38.259c4.349 0 7.64-3.526 7.346-7.875l-.53-8.698c-.352-4.29-4.113-7.876-8.462-7.876z" fill="#F25B24"/><path d="M46.934 50.745H11.32c-.705 0-1.352-.588-1.41-1.293-.06-.705.529-1.293 1.234-1.293h35.614c.706 0 1.352.588 1.41 1.293.06.705-.47 1.293-1.233 1.293zM35.18 56.798H11.674c-.705 0-1.352-.587-1.41-1.293-.06-.705.528-1.293 1.233-1.293h23.508c.706 0 1.352.588 1.41 1.293.06.706-.47 1.293-1.233 1.293z" fill="#fff"/><path d="M38.59 71.667h37.67c4.35 0 8.11 3.526 8.346 7.875l1.117 17.631.47 7.346-7.758-7.346h-38.2c-4.35 0-8.11-3.526-8.345-7.875l-.647-9.814c-.294-4.232 3.056-7.817 7.346-7.817z" fill="#9DB6FE"/><path d="M53.752 83.48c.117 1.528 1.41 2.762 2.938 2.762 1.528 0 2.704-1.234 2.586-2.762-.117-1.528-1.41-2.762-2.938-2.762-1.528 0-2.704 1.234-2.586 2.762zm-10.226 0c.117 1.528 1.41 2.762 2.938 2.762 1.528 0 2.704-1.234 2.586-2.762-.117-1.528-1.41-2.762-2.938-2.762-1.528 0-2.645 1.234-2.586 2.762zm21.568 0c.118 1.528 1.41 2.762 2.939 2.762 1.528 0 2.703-1.234 2.586-2.762-.118-1.528-1.41-2.762-2.939-2.762-1.528 0-2.703 1.234-2.586 2.762z" fill="#fff"/><path d="M141.458 78.29h3.915l-.23 1.129h-3.914l.229-1.13z" fill="#D4E4F8"/><path d="M146.908 77.626h3.914l-.229 1.13h-3.915l.23-1.13z" fill="#9FC1F4"/><path d="M157.802 79.737a.999.999 0 01.986-.834h11.832a1 1 0 01.986 1.166l-.615 3.662h-12.678a1 1 0 01-.987-1.166l.476-2.828zm-1.967 12.77a1 1 0 01.986-.835h11.833a1 1 0 01.986 1.166l-.615 3.662h-12.679a1 1 0 01-.986-1.166l.475-2.827z" fill="#DCE9FC"/><path d="M151.493 85.704a1 1 0 01.987-.835h11.832a1 1 0 01.986 1.166l-.475 2.828a1 1 0 01-.986.834h-13.014l.67-3.993z" fill="#9FC1F4"/><path d="M141.208 79.91h3.915l-.229 1.129h-3.915l.229-1.13z" fill="#D4E4F8"/><path d="M146.658 79.246h3.915l-.229 1.13h-3.915l.229-1.13z" fill="#9FC1F4"/><path d="M140.959 81.727h3.915l-.229 1.13h-3.915l.229-1.13z" fill="#D4E4F8"/><path d="M146.409 81.064h3.915l-.229 1.13h-3.915l.229-1.13zm-.28 1.62h3.914l-.229 1.13H145.9l.229-1.13z" fill="#9FC1F4"/><path d="M140.726 83.347h3.915l-.229 1.13h-3.915l.229-1.13z" fill="#D4E4F8"/><path d="M145.848 84.305h3.915l-.229 1.129h-3.915l.229-1.13z" fill="#9FC1F4"/><circle cx="147.092" cy="78.157" r=".746" fill="#D4E4F8"/><circle cx="146.779" cy="79.86" r=".746" fill="#D4E4F8"/><circle cx="146.479" cy="81.596" r=".746" fill="#D4E4F8"/><circle cx="146.199" cy="83.298" r=".746" fill="#D4E4F8"/><circle cx="145.869" cy="85" r=".746" fill="#D4E4F8"/></svg>