<svg width="193" height="193" fill="none" xmlns="http://www.w3.org/2000/svg"><path d="M112.214 125.539a21.813 21.813 0 019.619-3.288c1.581-.132 3.294-.132 4.546.855.263.197.527.526.461.855-.066.263-.263.394-.461.592-3.887 2.894-9.817 3.288-14.165.986zm.264-.263c2.174-1.71 4.348-3.42 6.193-5.459 1.845-2.039 3.36-4.472 3.887-7.169.197-.789.197-1.775-.33-2.433-4.941 3.88-8.828 8.879-9.75 15.061z" fill="#C8DBF4"/><path d="M112.28 125.539c.396-2.697.527-5.459-.131-8.155-.593-2.631-2.043-5.196-4.349-6.709-.856 1.973-.461 4.275.132 6.38a31.033 31.033 0 004.282 9.076m-4.809 8.09c2.965.329 5.534 1.907 7.708 3.88a14.747 14.747 0 014.414 7.564c-2.898-.198-5.336-2.237-7.115-4.473-1.779-2.302-3.03-4.801-5.007-6.971zm-1.054 1.381c2.372-5.854 1.515-12.891-2.174-17.955-1.713 5.985-1.054 12.693 2.174 17.955zm-6.391 7.629c2.701-.197 5.403.461 7.708 1.776 2.306 1.315 4.217 3.354 5.403 5.722.132.329.329.723.066 1.052-.198.263-.527.263-.857.263-2.569-.197-4.875-1.71-6.786-3.486-1.844-1.775-3.491-3.814-5.534-5.327zm.198-.46c1.384-4.407 1.45-9.208.264-13.68-.461-1.776-1.318-3.618-2.9-4.407-.13-.066-.329-.131-.46-.066-.132.066-.198.198-.264.329-.593 1.184-.725 2.565-.659 3.946.066 1.316.33 2.631.593 3.947.527 2.433.79 4.998 2.109 7.103.329.526.593 1.052.856 1.578.264.526.264.724.461 1.118m-16.932 2.697c1.252-4.801-.066-10.589-3.096-14.47-.198-.263-.527-.591-.857-.591-.527.065-.724.789-.658 1.315.131 4.933 1.778 9.734 4.611 13.746zm-1.581 1.052c-5.798 1.513-12.452.066-17.327-3.486 2.833-1.447 6.259-1.841 9.355-1.118 3.163.658 6.061 2.039 7.972 4.604zm-1.252-3.223c-3.228-5.261-9.487-8.747-15.68-9.076.725 2.499 2.767 4.472 5.14 5.656 2.37 1.184 4.94 1.71 7.51 2.171.988.263 2.371.46 3.03 1.249zm2.504-15.389c-.857-3.026-1.779-6.051-1.977-9.208-.263-3.157.198-6.38 1.845-9.076 3.03 5.853 3.36 12.759.264 18.547M72.62 122.58c-3.558-6.446-10.805-11.576-18.118-12.299 2.833 7.037 10.54 12.496 18.117 12.299zm2.24 1.315c-5.271.789-9.817 4.209-14.758 6.248-1.054.46-2.174.789-3.36.658-1.12-.132-2.24-.921-2.504-2.039-.197-.921.198-1.907.857-2.565.659-.658 1.515-1.118 2.437-1.447 5.403-2.236 11.2-2.302 16.866-.921" fill="#C8DBF4"/><path d="M77.956 127.578c-1.186.329-1.581.986-2.57 1.776a27.13 27.13 0 01-11.2 5.722c-.395.131-.988.131-1.185-.264-.198-.328.065-.723.263-1.052 1.713-2.17 4.15-3.617 6.786-4.604 2.57-.986 4.81-2.104 7.906-1.841m3.426-22.164c-4.283 4.012-10.41 6.051-16.273 5.524-.264 0-.527-.065-.725-.263-.395-.46.066-1.118.527-1.512 4.875-3.683 10.607-5.262 16.47-3.749z" fill="#C8DBF4"/><path d="M77.297 103.638c-5.666-4.275-13.506-5.525-20.292-3.354 2.57 2.499 6.127 3.88 9.685 4.209 3.558.329 7.115.066 10.607-.855zm1.647-10.26c.46-4.735.132-8.484.527-13.285 0-.395.132-.855.461-.987.527-.197.922.395 1.054.92 1.45 4.407.659 9.472-2.042 13.22" fill="#C8DBF4"/><path d="M79.273 93.904c-3.228-1.973-5.665-4.604-7.905-7.695-1.581-2.104-2.9-4.67-2.504-7.3 2.174-.066 4.282 1.184 5.666 2.828 1.45 1.644 2.24 3.749 2.899 5.853.659 2.105 1.12 4.275 1.844 6.314zm-7.773-2.17A63.644 63.644 0 0152.063 80.29c2.306-.921 5.007-.395 7.313.592 5.27 2.104 9.619 5.721 12.254 10.852m5.47 4.736c-3.558.394-7.248.657-10.805.065-3.492-.592-6.786-1.973-10.08-3.354-.264-.132-.593-.263-.66-.526-.131-.263 0-.658.264-.855a2.04 2.04 0 01.857-.395c3.557-.986 7.379-.526 10.87.658 3.492 1.184 6.39 2.565 9.553 4.406zm20.488 8.878c2.438-4.933 2.306-10.72.198-15.785-1.515 2.236-1.647 5.13-1.383 7.827.263 2.696 1.12 5.459 1.12 8.155m9.816-5.13c6.127-.131 12.254 2.5 16.405 6.972-3.031.46-6.193-.329-8.96-1.644-2.767-1.381-5.271-3.223-7.708-5.13m6.851-2.368c2.965-.263 5.864-.592 8.763.263 2.898.855 5.468 2.894 6.654 5.656-2.767.329-5.6-.394-8.17-1.513-2.569-1.249-4.941-2.828-7.247-4.406zm-9.75.065c2.701-1.775 5.468-3.551 8.564-4.274 3.163-.724 6.786-.198 8.96 2.17-2.503 1.513-5.6 1.644-8.564 1.644-2.965 0-6.523-.066-9.29.921" fill="#C8DBF4"/><path d="M104.177 98.442c4.612-4.538 6.325-12.627 4.48-18.744-3.558 5.459-5.205 12.233-4.48 18.744zM91.528 85.683c-.857-2.04-1.45-4.144-2.24-6.183-.79-2.038-1.713-4.077-3.229-5.722-1.449-1.644-3.491-2.828-5.665-2.96 1.383 6.183 5.468 11.774 11.068 14.865m2.372 2.631c1.449-1.973 3.096-4.67 5.007-6.117 1.976-1.447 4.479-2.367 6.851-1.775-2.372 4.34-6.917 7.366-11.858 7.892zm-.462-2.434c.922-2.367 1.91-4.8 2.24-7.366.395-2.565.132-5.261-1.12-7.432-2.503 4.736-3.36 9.866-1.252 14.864m-1.712-14.864c-1.45-4.735-5.732-8.221-10.41-9.8-.593-.197-1.186-.394-1.844-.263-.593.066-1.252.527-1.318 1.119-.198.789.527 1.512 1.12 2.038a35.607 35.607 0 0012.452 6.906zm-.066-3.88c-.198-3.026-.396-6.117-1.384-9.01-.988-2.895-2.899-5.591-5.666-6.84-.461 3.09.857 6.116 2.504 8.747 1.647 2.63 3.623 5.13 4.612 8.09m-.001 1.117c1.186-3.42 1.318-7.826 3.36-10.786 1.45-2.105 3.756-3.552 5.007-5.722.857 2.105.593 4.472-.263 6.511-.857 2.04-2.306 3.815-3.821 5.46-1.516 1.578-2.833 2.827-4.283 4.537z" fill="#C8DBF4"/><path d="M91.527 170.657c.066 0 .198-22.954.198-51.3 0-28.347-.066-51.3-.132-51.3s-.198 22.953-.198 51.3c-.065 28.346.066 51.3.132 51.3z" fill="#C8DBF4"/><path d="M71.434 101.862s.329.132.856.329c.593.197 1.45.46 2.372.789a121.25 121.25 0 017.774 2.894c2.965 1.25 5.732 2.302 7.313 3.683.79.658 1.252 1.381 1.45 1.973.197.526.263.855.329.855v-.263c0-.131-.066-.395-.198-.658-.198-.592-.659-1.381-1.45-2.104-.79-.724-1.91-1.381-3.162-1.973-1.252-.592-2.7-1.184-4.216-1.842-3.03-1.249-5.798-2.17-7.774-2.828-.988-.329-1.845-.526-2.438-.723a13.075 13.075 0 01-.856-.132z" fill="#C8DBF4"/><path d="M64.845 85.749l.264.263c.198.197.461.394.725.723.658.592 1.647 1.447 2.767 2.5 2.371 2.104 5.6 4.998 9.157 8.155 3.558 3.157 6.654 6.248 8.828 8.484 1.055 1.118 1.91 2.105 2.504 2.762.263.329.461.526.659.79a.792.792 0 00.263.263s-.066-.132-.197-.263a11.92 11.92 0 00-.593-.79c-.527-.657-1.384-1.644-2.438-2.828-2.108-2.302-5.205-5.393-8.762-8.616-3.624-3.156-6.852-6.05-9.224-8.09-1.186-.986-2.108-1.84-2.833-2.433-.33-.263-.593-.46-.79-.657-.198-.263-.33-.33-.33-.263z" fill="#C8DBF4"/><path d="M81.58 100.547c.065-.066-.66-1.776-1.384-3.946-.725-2.17-1.12-4.012-1.186-4.012-.066 0 .132 1.907.856 4.077.396 1.118.79 2.04 1.12 2.763.33.723.593 1.118.593 1.118zm9.947 13.877s.198-.197.527-.658c.396-.46.857-1.118 1.384-1.775 1.186-1.513 2.833-3.618 4.677-5.985 1.845-2.302 3.558-4.407 4.744-5.92.593-.723 1.054-1.315 1.449-1.775.33-.395.527-.658.527-.658l-.593.592a24.52 24.52 0 00-1.515 1.71 150.03 150.03 0 00-4.81 5.853c-1.844 2.302-3.425 4.473-4.611 6.051a42.927 42.927 0 00-1.318 1.842c-.329.46-.527.723-.46.723z" fill="#C8DBF4"/><path d="M95.876 108.768c.066.066 1.251-1.316 1.844-3.42.462-1.513.462-2.828.396-3.486h-.132c.066.263.132.395.132.395v-.395h-.132c-.066.592-.132 1.907-.593 3.354-.527 2.105-1.581 3.552-1.515 3.552zm5.731-7.103c.066.066.396-.461 1.318-.724.857-.329 2.174-.394 3.558-.263 1.449.132 2.701.329 3.623.592.923.197 1.45.395 1.515.329 0-.066-.527-.263-1.449-.592-.922-.263-2.174-.592-3.623-.658-1.45-.131-2.833 0-3.69.395-.988.329-1.317.921-1.252.921zm1.318-1.775c0 .065.725-.33 1.976-.724 1.252-.395 2.965-.855 4.942-.987 1.976-.131 3.755 0 5.007.263 1.251.198 2.042.46 2.042.395 0 0-.198-.132-.527-.197-.33-.132-.857-.263-1.515-.395-1.252-.263-3.097-.526-5.073-.329-1.977.132-3.756.658-5.007 1.118-.593.263-1.12.46-1.384.658a3.754 3.754 0 01-.461.197zm-11.397-7.301c.065 0 .724-2.236 1.449-4.999.725-2.762 1.186-5.064 1.12-5.064-.066 0-.725 2.236-1.45 4.999-.658 2.762-1.185 5.064-1.12 5.064z" fill="#C8DBF4"/><path d="M91.462 92.588c.131 0 .527-1.447 1.58-2.96 1.055-1.578 2.373-2.367 2.373-2.433 0-.065-.396.132-.923.46-.527.33-1.186.987-1.713 1.776-1.12 1.579-1.383 3.157-1.317 3.157zm.065 65.836c.066 0 .132-.526.395-1.513.264-.986.725-2.367 1.516-3.946 1.58-3.223 4.48-7.366 8.169-11.444 1.845-2.104 3.558-4.012 5.073-5.919 1.515-1.842 2.767-3.683 3.624-5.262.922-1.578 1.515-2.959 1.844-3.88.198-.46.264-.855.33-1.118.066-.263.131-.395.066-.395 0 0-.198.527-.593 1.447a33.87 33.87 0 01-1.911 3.815c-.922 1.578-2.174 3.288-3.689 5.13-1.516 1.841-3.294 3.815-5.073 5.853-3.69 4.144-6.589 8.287-8.104 11.576-.79 1.644-1.252 3.025-1.45 4.078-.13.526-.197.855-.197 1.183v.395zm-18.183-20.52s.33.197.922.526c.593.329 1.45.855 2.438 1.644.988.79 2.108 1.776 3.228 2.96a58.542 58.542 0 013.492 4.078c2.371 3.025 4.611 5.656 5.995 7.76.659 1.053 1.186 1.908 1.515 2.565.33.592.527.987.527.987s0-.066-.066-.263c-.065-.197-.197-.395-.329-.724-.264-.657-.725-1.578-1.383-2.63-1.318-2.171-3.492-4.867-5.93-7.827-1.186-1.513-2.372-2.894-3.558-4.078a40.413 40.413 0 00-3.294-2.959c-1.054-.724-1.91-1.25-2.569-1.579-.33-.131-.593-.263-.725-.329l-.263-.131z" fill="#C8DBF4"/><path d="M73.015 144.547c0 .065.79.131 2.042.263 1.252.131 2.965.394 4.744.92 1.779.592 3.294 1.447 4.282 2.237.988.789 1.45 1.381 1.515 1.381 0 0-.066-.197-.33-.461-.197-.263-.592-.657-1.053-1.052-.988-.855-2.438-1.776-4.348-2.368-1.845-.592-3.624-.723-4.876-.855-1.186-.065-1.976-.065-1.976-.065z" fill="#C8DBF4"/><path d="M84.94 148.624c.131-.066-.791-1.447-1.516-3.288-.659-1.908-.79-3.552-.922-3.486-.066 0-.066.395.066 1.052.065.658.263 1.579.593 2.565a8.24 8.24 0 001.185 2.302c.33.592.593.921.593.855zM67.48 120.08s.132.066.33.198c.263.131.593.263.922.46.396.197.923.395 1.516.723a17.89 17.89 0 011.91.987c.33.197.725.395 1.12.592.395.197.725.46 1.186.723.79.461 1.647 1.118 2.504 1.71 1.712 1.25 3.491 2.828 5.204 4.538 1.713 1.776 3.163 3.618 4.414 5.328.593.855 1.186 1.71 1.647 2.565.264.394.462.789.66 1.184.197.394.394.789.592 1.118.395.723.659 1.381.922 1.973.264.592.462 1.052.66 1.513.131.394.263.723.395.986a2.8 2.8 0 00.131.329s0-.132-.066-.329c-.065-.263-.197-.592-.329-.986-.132-.461-.33-.921-.593-1.513-.263-.592-.527-1.25-.922-1.973-.198-.395-.396-.724-.593-1.118-.198-.395-.461-.79-.659-1.184-.461-.855-1.054-1.644-1.581-2.565-1.252-1.776-2.701-3.618-4.414-5.393-1.713-1.776-3.558-3.289-5.27-4.538a176.13 176.13 0 00-2.504-1.71c-.396-.263-.79-.527-1.186-.724-.395-.197-.79-.394-1.12-.592a27.742 27.742 0 00-1.977-.986c-.593-.263-1.12-.461-1.515-.658a7.677 7.677 0 01-.988-.395c-.264-.197-.395-.263-.395-.263z" fill="#C8DBF4"/><path d="M81.843 129.683s-.132-.592-.79-1.184c-.66-.592-1.845-1.184-3.163-1.25-1.383-.066-2.57.329-3.36.658s-1.252.592-1.252.592c0 .066.527-.132 1.318-.395.79-.263 1.976-.592 3.294-.526 1.318.066 2.372.526 3.03 1.052.66.592.857 1.118.923 1.053zm2.174 2.236c.066-.066-.725-1.25-.922-2.96-.198-1.71.329-3.025.197-3.091-.066 0-.198.329-.395.855-.132.526-.264 1.381-.132 2.236.132.855.395 1.645.659 2.171.33.526.527.789.593.789zm23.388 29.793c-.527 8.747-3.162 17.692-7.247 26.703H82.436c-3.888-8.945-6.325-17.824-6.786-26.703h31.755z" fill="#C8DBF4"/><path d="M78.549 175.853c0 .065 5.863.197 13.044.197s13.045-.066 13.045-.197c0-.066-5.864-.198-13.045-.198-7.18.066-13.044.132-13.044.198zm.395 3.222c0 .066 5.468.198 12.188.198 6.72 0 12.188-.066 12.188-.198 0-.066-5.468-.197-12.188-.197-6.72 0-12.188.066-12.188.197zm20.95-11.641c-.065 0-.197 1.842-.197 4.078s.066 4.078.197 4.078c.066 0 .198-1.842.198-4.078s-.066-4.078-.198-4.078z" fill="#FAFAFA"/><path d="M90.407 167.434c-.066 0-.197 1.908-.197 4.21 0 2.301.066 4.209.197 4.209.066 0 .198-1.908.198-4.209 0-2.302-.132-4.21-.198-4.21zm-8.894-.065c-.066 0-.197 1.907-.197 4.275 0 2.367.066 4.275.197 4.275.066 0 .198-1.908.198-4.275-.066-2.368-.132-4.275-.198-4.275z" fill="#FAFAFA"/><path d="M76.243 167.434c0 .066 6.851.198 15.284.198s15.285-.066 15.285-.198c0-.131-6.852-.197-15.285-.197-8.433.066-15.284.131-15.284.197z" fill="#FAFAFA"/><path d="M113.733 179.372s-1.937 2.808-4.68 3.422c-2.743.613-5.421 1.581-5.454 3.227-.032 1.679 7.907 2.647 11.037.968 4.68-2.485 5.164-1.742 5.68-3.001s-.613-4.583-.581-5.003c.032-.452-6.002.387-6.002.387z" fill="#1C143F"/><path d="M114.056 177.985s-.355 1.355-.291 1.388c.065.032 6.164.742 5.97-.356-.161-.871-.355-1.839-.355-1.839l-5.324.807z" fill="#81807E"/><path d="M134.322 179.179s-1.388 2.679-3.776 3.615c-2.549.968-4.582 2.098-4.518 3.711.032 1.614 6.229 3.26 10.714.162 2.84-1.969 3.744-1.969 4.195-3.195.452-1.227-.774-4.455-.774-4.842 0-.484-5.841.549-5.841.549z" fill="#1C143F"/><path d="M134.257 177.791s.033 1.355.065 1.388c.064.032 5.97.484 5.809-.581-.129-.839-.581-1.872-.581-1.872l-5.293 1.065z" fill="#81807E"/><path d="M112.571 95.713s-5.486 23.304-6.745 30.404c-1.065 6.036-1.904 12.33-1.42 16.687.646 5.39 8.584 33.405 8.229 34.987-.322 1.581 8.326.258 8.326.258s-6.034-31.211-4.84-37.02c.903-4.293 8.713-32.889 9.939-31.437 1.194 1.452 2.679 26.983 3.582 31.211.904 4.228 3.615 37.698 3.615 37.698s6.099.871 7.713-.452c0 0 .742-28.564.161-36.504-.226-3.034 3.679-36.278-1.323-49.672-2.582-7.101-27.237 3.84-27.237 3.84z" fill="#2D1686"/><path d="M146.133 46.17l-11.682-4.647-10.004.806-2.066.904-12.101 6.036 3.162 22.206c1.065 3.97-.839 11.716-1.032 15.815-.162 3.26.935 4.744.968 4.776l26.043-3.518s1.161-7.875 1.258-12.135l5.454-30.243z" fill="#fff"/><path d="M113.345 92.099s-.613.677-.774 3.614c0 0 24.655-2.775 27.269-3.873 0 0 .097-3.227-.452-3.292-.581-.064-26.043 3.55-26.043 3.55z" fill="#273037"/><path d="M133.773 89.13s.549 3.26.581 4.13l1.129-.225s-.322-3.454-.484-4.035l-1.226.13zm-18.362 2.581s-.42 2.97-.452 4.1l1.194-.162s.258-3.712.387-4.1l-1.129.162z" fill="#2D1686"/><path d="M134.386 40.715c-.064 3.712-7.583 5.778-7.583 5.778s-3.131-3.776-2.388-4.131c.29-.13.419-.71.451-1.356.033-.613 0-1.259-.032-1.678-.032-.259-.032-.42-.032-.42s1.065-1.097 2.42-2.388c2.388-2.26 5.648-5.165 5.648-4.003 0 .065 0 .13-.033.226-.548 2.55 1.549 7.972 1.549 7.972z" fill="#FFAE73"/><path d="M131.514 35.261c0 .032-.322.484-.871 1.13-1.162 1.388-3.324 3.68-5.744 4.615.032-.613 0-1.259-.033-1.678-.258 0-.484-.033-.742-.097.678-1.13 1.646-2.292 1.646-2.292l1.517-.42 4.227-1.258z" fill="#D79573"/><path d="M132.934 32.55c-.645 1.355-1.258 2.356-1.452 2.743-.129.258-.42.678-.871 1.13-1.227 1.291-3.518 2.97-5.777 2.905-.258 0-.484-.033-.742-.097-.904-.194-2.001-.613-2.582-1.71-4.679-8.812-1.291-16.01-1.291-16.01s12.78-3.485 14.781.226c1.419 2.583-.517 7.618-2.066 10.813z" fill="#FFAE73"/><path d="M120.219 21.512s-1.194-.065-1.484-2.227c-.291-2.13.29-2.744.29-2.744s5.293-2.13 7.164-2.388c1.904-.29 6.551-.55 7.649.645 0 0 2.646-.58 3.388 3.647 1.162 6.746-3.905 13.266-3.905 13.266s.033-4.39-.968-4.97c-1-.582-1.872.806-1.872.806l-2.065.355s3.13-6.52-.613-6.746c-3.744-.258-5.422.71-7.584.356z" fill="#232729"/><path d="M130.546 25.772c.194-1.937 3.84-2.679 3.582-.646-.258 2.034-2.033 3.97-2.872 3.906-.807-.065-.839-1.776-.71-3.26z" fill="#EEA886"/><path d="M155.815 75.186v-.129c-.065-2.84-1.517-14.17-3.97-21.69-1.194-3.646-1.452-6.196-1.904-6.519-.807-.549-7.874-2.55-10.843-3.68-1.355-.516-1.291-.484-1.839-.677-.323.322-1.904 2.13-3.324 4.099-3.098 4.228-7.132 11.103-6.519 17.429.194 2.033.452 4.938.839 8.23.032.29.064.549.097.84.097.742.193 1.516.322 2.29.065.453.162.937.226 1.42.807 4.907 3.389 8.263 5.68 12.266.032.032.032.064.065.097 0 .032.032.032.032.064.032.097.097.162.129.258.065.13.161.29.226.42.032.097.097.161.129.258.452.807.871 1.646 1.291 2.453.258.549.516 1.065.774 1.614.033.064.065.097.065.161 0 0 .419.936.968 2.13.194.452.42.936.613 1.388.162.323.291.678.452 1 .129.291.258.55.355.808.258.581.484 1.097.645 1.452.129.258.194.452.226.517a242.478 242.478 0 011.614 4.034c.097.258.161.42.161.42l7.874-4.196c1.485-.71.71-4.616.162-6.133-.452-1.258-1.13-2.614-1.872-4.002a44.95 44.95 0 00-.936-1.743c2.485-4.163 4.97-8.424 6.551-11.36 1.065-1.905 1.711-3.196 1.711-3.519zM143.261 63.31c0-.033 0-.033 0 0 0-.033 0-.065.032-.065v-.097s3.841 5.778 3.55 10.78c-.032.775-.839 2.744-2.033 5.294-.419.936-.903 1.904-1.42 2.969-.032-.032-.032-.097-.064-.13-.743-1.71-1.227-3.356-1.227-4.744.065-.032.388-11.038 1.162-14.007zm-59.799 3.517l17.879 3.744 8.519-21.431c.194-.13 2.647-1.42 4.26-2.163 1.678-.774 3.808-1.71 5.712-2.55.904-.387 1.743-.774 2.485-1.097l.065.032s-1.065 3.39-2.421 11.813c-.032.29-.097.581-.129.872 0 .032 0 .064-.032.096l-.097.581v.065c-.032.13-.032.258-.064.42-.065.322-.097.677-.162 1.032-.613 4.1-1.452 11.103-2.291 18.14-.646 5.55-2.13 11.264-2.582 15.524-.097.84-.323 1.937-.613 3.195-.032.13-.065.29-.097.42-1.323 5.39-3.872 12.975-3.872 12.975l-.743-.678-2.226-1.969c-.517-.452-.71-1.162-.484-1.775 1.226-3.809 5.389-17.3 6.163-26.789.226-2.97-.677-5.777-1.194-8.456 0 .032-.032.032-.032.064-.452 1.162-.936 2.453-1.42 3.712-1.323 3.357-2.678 6.455-3.227 6.649-1.258.452-24.784-5.745-24.946-6.649l1.55-5.777z" fill="#4E33B5"/><path d="M135.161 51.69l-3.647 1.968 1.549 1.517-4.163 21.56c-.839-5.067-1.226-9.844-1.516-12.78-.969-9.78 9.197-20.85 9.842-21.529a40.57 40.57 0 001.549.581l-3.614 8.682zm-12.78-8.425s-1.355 4.293-2.936 14.976c-.613 4.1-1.453 11.103-2.292 18.14l-.839-20.205 1.743-1.808-1.549-1.872 3.292-8.133c.903-.388 1.742-.775 2.485-1.098h.096z" fill="#4E33B5"/><path d="M137.42 42.49l-3.033-1.774s-.097 1.581-7.584 5.777l2.13 5.777 8.487-9.78z" fill="#fff"/><path d="M124.834 41.523s.129 1.71 2.001 4.97l-4.163 5.197-.291-8.424 2.453-1.743z" fill="#fff"/><path d="M126.835 46.493s.807 3.098.517 3.97c0 0-1.775.613-3.034-.162 0 0 .904-2.162 2.517-3.808z" fill="#E34208"/><path d="M125.835 90.162s-3.615.42-4.841.71l.161 3.906 4.744-.485-.064-4.13z" fill="#69737A"/><path d="M125.028 50.011s-4.034 9.844-3.389 20.85c.678 11.426 1.807 15.557 1.807 15.557l2.485 3.002 1.098-3.712s-3.357-14.556-1.194-28.725c.387-2.582.968-7.424.968-7.424l-1.775.452z" fill="#F25B24"/><path d="M137.194 96.488s-.871 1.678-1.743 1.937c-.871.29-2.13 1.646-2.13 1.646l6.132 3.098s1.613-3.066 1.71-5.002c.065-1.937-3.969-1.679-3.969-1.679z" fill="#EEA886"/><path d="M136.613 96.65l-.419.774s3.872 2.743 4.937 2.905l.355-1.033-4.873-2.647z" fill="#DECBC4"/><path d="M136.194 96.682s2.904 2.324 5.357 3.389l8.261-14.298-4.26-7.94s-9.165 17.461-9.358 18.849zM111.571 63.89c-.129 2.646-.129 5.002-.129 5.002v.194c0-.032 0-.097-.033-.13-.451 1.163-.935 2.454-1.42 3.713-.129-1.453-.129-2.776-.096-4.035.193-7.423 2.614-11.296 2.614-11.296-.549 1.29-.807 4.034-.936 6.552zm36.95 27.886l-6.583 7.681 5.647-9.424c.323.58.646 1.162.936 1.743z" fill="#4E33B5"/><path d="M100.566 82.158H85.302c-1.033 0-1.969-.678-2.195-1.679l-6.615-26.304c-.355-1.388.742-2.68 2.194-2.68h15.265c1.032 0 1.968.678 2.194 1.68l6.616 26.336c.355 1.323-.743 2.647-2.195 2.647z" fill="#F25B24"/><path d="M81.913 74.831c.742-.678 2.195-1.065 3.42-1.84 1.227-.807.195-1.614.195-1.614 1.258-.42 1.129-.968.968-1.355-.226-.517-1.614-.355-1.614-.355s1.226-.258 1.743-.484c.516-.226.323-1.065-.452-1.356-.775-.258-3.97.484-3.97.484s.517-.258 2.098-1c1.581-.775 1.936-1.453 1-1.775-.645-.226-1.903.258-4.356 1.84-1.84 1.194-1.678 1.355-1.678 1.355s1.743 6.907 2.646 6.1z" fill="#FFAE73"/><path d="M60.54 25.94l-35.088 8.607 20.225 6.637L60.54 25.941z" fill="#9DB6FE"/><path d="M24.47 35.544l5.54 22.6 32.892-8.064c2.488-.614 3.98-3.266 3.326-5.923l-4.36-17.781-15.847 16.24-21.551-7.072z" fill="#9DB6FE"/><path d="M54.246 27.483c.028.312.08.62.156.935a6.1 6.1 0 001.275 2.518l4.864-4.995-6.295 1.542zM61.9 32.97a6.393 6.393 0 001.445-.546l-1.476-6.037-5.294 5.431A6.252 6.252 0 0061.9 32.97z" fill="#9C4D30"/><path d="M70.054 28.572A8.942 8.942 0 1055.501 18.18a8.942 8.942 0 0014.553 10.392z" fill="#F25B24"/><path d="M65.421 27.895l-2.05.46-1.529-6.734-1.283.298-.46-2.05 3.317-.756 2.005 8.782z" fill="#fff"/></svg>