<svg width="193" height="193" fill="none" xmlns="http://www.w3.org/2000/svg"><path d="M148.384 50.14c-.318-5.645-9.635-5.888-9.635-5.888s-8.058 8.06-9.876 7.906c-1.818-.153 5.555-8.238 5.555-8.238-3.369-1.06-13.004 1.316-13.004 1.316s-1.741 11.022-3.47 10.422c-1.728-.6 2.034-9.682 2.034-9.682-3.534.294-7.449 3.538-7.449 3.538-5.211 5.518 2.11 11.956 2.11 11.956s-.686 3.806-3.927 7.65c0 0-.699.69-1.513 1.942l.903.192a7.93 7.93 0 01.394-.652v-.013c.089-.127.228-.306.381-.523.394-.486.661-.843.839-1.111 1.195-1.533 2.847-3.5 3.75-3.807 0 0-.077-.166-.102-.46.038.141.063.294.102.46.851 3.666 8.49 5.876 12.99 5.901 4.512.026 2.885-1.596.979-4.074-1.907-2.478-6.889-2.989-8.173-4.075-1.271-1.085.991-1.417 3.826-.587 2.834.83 3.66 4.036 8.224 5.466 4.563 1.431 9.952-6.603 9.952-6.603-3.419.32-8.808-2.682-8.796-3.845.013-1.162 8.517.767 9.915.716 1.411-.077 4.309-2.261 3.991-7.907z" fill="#DAEBFD"/><path opacity=".5" d="M92.15 49.307s5.619-20.232 18.012-30.91c1.652-1.418 4.156.038 3.788 2.184 0 .038-.013.076-.026.115-.699 3.653-14.846 17.345-21.774 28.61z" fill="#A2CDFC"/><path opacity=".5" d="M89.965 55.016s14.426-24.14 34.065-32.775c1.195-.523 2.631-.05 3.203 1.137.369.766.419 1.89-.381 3.513-2.11 4.317-24.405 16.477-36.887 28.125zm29.524 82.709s21.901-11.036 25.866-7.191c3.954 3.844-25.866 7.191-25.866 7.191zm-3.559 1.328s29.324-2.593 29.781 3.551c.458 6.131-29.781-3.551-29.781-3.551z" fill="#A2CDFC"/><path d="M25.118 13.937c5.51-10.858 24.087-3.233 24.087-3.233s8.937 22.886 12.647 24.17c3.724 1.272-3.83-21.072-3.83-21.072 7.551.83 24.502 13.873 24.502 13.873s-6.09 23.256-2.174 23.564c3.913.32 4.348-20.868 4.348-20.868 6.707 3.658 11.65 13.436 11.65 13.436 5.508 15.415-14.487 21.75-14.487 21.75s-1.934 8.1 1.123 18.499c0 0 .772 1.957 1.313 5.133l-1.956-.412a19.184 19.184 0 00-.217-1.638l.002-.012c.002-.013.002-.013-.009-.027-.076-.336-.17-.803-.297-1.38-.349-1.295-.572-2.248-.696-2.928-1.021-4.052-2.597-9.395-4.107-10.758 0 0 .287-.266.604-.81-.194.254-.393.533-.604.81-4.835 6.503-21.795 4.202-30.71.351-8.915-3.863-4.307-5.657 1.608-8.887 5.915-3.23 16.176.083 19.621-.95 3.458-1.033-.735-3.66-7.041-4.474-6.307-.814-10.702 4.776-20.934 3.64-10.22-1.134-13.917-21.667-13.917-21.667 6.47 3.607 19.68 2.355 20.66.053.981-2.302-17.447-5.895-20.16-7.215-2.707-1.28-6.523-8.089-1.026-18.948zm123.821 82.787c-1.856-6.91-13.461-4.752-13.461-4.752s-7.88 12.084-10.168 12.377c-2.288.294 4.728-11.661 4.728-11.661-4.436-.434-15.749 5.032-15.749 5.032s.712 14.101-1.576 13.82c-2.288-.293 0-12.517 0-12.517-4.296 1.29-8.3 6.335-8.3 6.335-5.02 8.2 5.72 14.242 5.72 14.242s.14 4.892-2.86 10.499c0 0-.674 1.035-1.373 2.797h1.17c.101-.319.203-.625.317-.919v-.013c.077-.179.191-.434.344-.754.355-.702.597-1.226.749-1.596 1.068-2.21 2.619-5.084 3.649-5.697 0 0-.128-.179-.255-.536.077.166.166.357.255.536 2.008 4.317 12.024 5.033 17.617 3.883 5.58-1.149 3.152-2.733.14-5.301-3.013-2.567-9.305-1.89-11.173-2.899-1.856-1.009.864-2.018 4.588-1.724 3.725.293 5.58 4.023 11.605 4.611 6.013.574 10.601-10.793 10.601-10.793-4.156 1.29-11.605-1.009-11.884-2.453-.293-1.443 10.74-1.29 12.456-1.724 1.716-.434 4.716-3.883 2.86-10.793z" fill="#DAEBFD"/><path d="M27.505 101.245c4.131-7.855 17.58-2.069 17.58-2.069s6.266 16.783 8.96 17.767c2.695.971-2.567-15.404-2.567-15.404 5.491.69 17.706 10.41 17.706 10.41s-4.69 16.873-1.83 17.154c2.847.281 3.394-15.162 3.394-15.162 4.855 2.747 8.338 9.938 8.338 9.938 3.852 11.304-10.791 15.685-10.791 15.685s-1.5 5.888.623 13.5c0 0 .546 1.444.902 3.756l-1.424-.32a11.712 11.712 0 00-.14-1.188v-.025c-.05-.243-.114-.588-.203-1.009a31.051 31.051 0 01-.483-2.146c-.699-2.963-1.792-6.872-2.872-7.894 0 0 .203-.191.444-.587-.14.191-.292.383-.444.587-3.598 4.675-15.927 2.81-22.384-.114-6.445-2.925-3.076-4.177 1.258-6.464 4.334-2.286 11.783.256 14.312-.459 2.53-.716-.495-2.67-5.084-3.347-4.589-.664-7.855 3.347-15.291 2.401-7.436-.945-9.902-15.966-9.902-15.966 4.678 2.708 14.313 1.955 15.05.294.737-1.66-12.647-4.509-14.618-5.492-1.957-.984-4.665-5.991-.534-13.846z" fill="#C5E0FB"/><path d="M20.724 165.552c-2.186-4.751 5.326-9.005 5.326-9.005s10.067 3.066 11.478 2.146c1.424-.92-8.097-4.304-8.097-4.304 2.288-2.338 11.186-4.599 11.186-4.599s6.177 8.252 7.334 7c1.157-1.239-5.847-7.025-5.847-7.025 3.013-1.303 7.614-.371 7.614-.371 6.635 2.236 3.445 10.691 3.445 10.691s2.199 2.81 6.508 4.547c0 0 .864.256 2.071.92l-.66.549c-.204-.127-.407-.255-.61-.357h-.013c-.128-.064-.318-.154-.547-.269-.534-.23-.902-.408-1.17-.536-1.626-.728-3.838-1.622-4.702-1.469 0 0-.013-.166-.115-.421.038.127.077.268.115.421.89 3.372-4.398 8.494-8.06 10.487-3.672 1.992-3.037-.052-2.554-2.913.483-2.861 4.334-5.454 4.906-6.897.572-1.443-1.423-.728-3.38 1.188-1.958 1.916-1.246 4.892-4.36 8.047-3.102 3.155-10.983-1.06-10.983-1.06 2.936-1.227 6.038-6.029 5.53-6.974-.509-.946-6.623 4.342-7.792 4.904-1.144.562-4.436.051-6.623-4.7z" fill="#D3E8FA"/><path d="M86.099 111.2a1.627 1.627 0 00.022 1.935c.046.058.07.104.092.15 7.958 4.805 31.819 24.231 31.819 37.931v28.367h-72.02v-28.379c0-13.78 24.183-33.517 31.968-38.069.253-.345.333-.691.333-.979 0-.588-.333-.991-.333-.991-7.797-4.643-31.967-24.242-31.967-38.023V44.775h72.008v28.379c0 13.769-24.103 33.46-31.922 38.046z" fill="#9FD4FF"/><path d="M122.159 186.9H41.311v-7.109c0-.115.092-.208.206-.208h80.459c.103 0 .195.093.195.196v7.121h-.012z" fill="#E34208"/><path d="M66.629 152.967c-.367 6.349.837 20.049.722 26.628H46.013v-28.379c0-13.78 24.182-33.518 31.967-38.069a1.64 1.64 0 00.333-.979c0-.588-.333-.991-.333-.991-7.797-4.644-31.967-24.243-31.967-38.023V44.775h14.275l10.194 2.8v22.433s-1.01 6.464 1.513 12.813c2.523 6.349 7.946 26.708 7.866 29.358-.08 2.65-12.602 29.9-13.232 40.788z" fill="#93C8FD"/><path d="M108.698 63.637c-4.369.069-11.868.853-24.01 3.94-8.313 2.109-22.646.519-30.225-.576-2.66-.38-5.034 1.694-5.034 4.39v3.272c0 9.01 24.125 28.529 30.5 33.53a4.03 4.03 0 011.537 3.157v50.098a5.238 5.238 0 01-2.236 4.286c-5.023 3.526-13.473 13.85-13.473 13.85h31.98s-8.578-9.967-13.393-13.666a4.454 4.454 0 01-1.743-3.537v-51.054a4.03 4.03 0 011.502-3.146c6.237-5.035 29.846-24.622 29.846-33.621v-5.715c0-2.915-2.373-5.254-5.251-5.208z" fill="#F8E6E0"/><path d="M121.953 47.575H41.506a.202.202 0 01-.195-.196v-7.11h80.849v7.11c0 .115-.092.196-.207.196z" fill="#E34208"/><path d="M151.921 88.481s3.53.398 6.263.235c3.421-.199 7.621-.29 8.418.616.778.905.778.905-.743 1.701-1.176.616-5.738 2.625-8.815 1.684-3.078-.96-7.006-.76-7.006-.76l1.883-3.476z" fill="#FFAE73"/><path d="M114.25 54.883s6.571 32.566 14.391 35.046c3.856 1.231 20.746 3.53 25.688 3.566 0 0 1.158-1.05.615-5.032 0 0-17.867-5.377-20.546-8.725-4.001-4.979 1.032-21.361-3.892-25.96-4.924-4.597-12.853-6.226-16.256 1.105z" fill="#2D1686"/><path d="M135.85 161.146s-6.898 4.465-6.229 5.908c.095.192 3.898 7.062 3.898 7.062l4.911 8.756s2.063-1.232 1.089-4.061c-.975-2.809-1.567-8.12.936-11.565 2.637-3.617-4.605-6.1-4.605-6.1z" fill="#232536"/><path d="M174.398 66.594l-7.552 23.24.896.291 7.551-23.24-.895-.291z" fill="#F25B24"/><path d="M142.145 88.024l-.033 1.538 25.628.547.033-1.538-25.628-.547z" fill="#F25B24"/><path d="M153.431 179.269s3.385-1.367 4.761-1.941c1.394-.59 1.575-1.805 2.172-.995.615.793 3.584 3.222 5.177 3.492 1.575.287 11.416-.022 11.416 3.26 0 .53-4.963 1.003-11.783 2.239-6.384 1.156-7.895 1.289-11.001 1.289-1.394-.321-.742-7.344-.742-7.344z" fill="#232536"/><path d="M151.052 132.415c.054-3.548-4.163-13.486-7.313-19.478-4.942-9.594-8.056-17.07-8.056-17.07s-21.632 1.502-21.523 4.435c.217 5.557 5.195 10.499 7.367 12.907l4.635 4.489s4.579 4.544 7.856 8.436c4.381 5.213 3.113 7.367 5.25 14.445 1.918 6.354 13.274 40.347 13.274 40.347l9.721-4.036s-11.283-38.972-11.211-44.475z" fill="#2D1686"/><path d="M127.99 45.94s4.887 10.3 5.376 15.26c.489 4.96 2.227 15.478 2.408 18.266.181 2.788 0 16.51 0 16.51l-24.836 10.553s4.362-8.037 3.62-17.487c-.742-9.45-2.154-16.473-1.991-21.922.561-18.609 8.544-24.854 8.544-24.854l6.879 3.675z" fill="#fff"/><path d="M140.969 28.744s.996 4.598-.253 4.905c-1.032.254-.254 4.707-.181 5.43.072.707-1.919.634-2.426.942-.507.29-3.132 5.014-4.688 4.725-1.557-.29-7.712-4.652-8.997-7.114-1.304-2.48-.29-11.658 2.027-14.97 2.299-3.35 12.744-1.974 14.518 6.082z" fill="#FFAE73"/><path d="M131.9 42.103s-.163.489-.416 1.23c-.109.309-.218.689-.344 1.069-.091.308-.2.615-.29.941-.616 2.064-1.285 4.562-1.303 5.757-.037 2.262-7.404-8.889-7.404-8.889s2.317-6.914 3.656-14.97c1.322-8.037 6.101 14.862 6.101 14.862z" fill="#FFAE73"/><path d="M141.186 29.522s3.349-3.747.2-8.001c-3.15-4.272-12.02-.598-12.925-.598-.887 0-5.739-.923-5.504 7.984.2 7.838.507 7.566.507 7.566s2.48-3.24 3.512-3.638c1.611-.616 4.508.398 4.508.398s-.417-4.127 1.937-4.073c2.353.054 5.756-1.05 7.765.362z" fill="#292B2D"/><path d="M129.655 30.39c-.036-.56-.036-2.95-2.299-2.208s-.398 5.775-.09 5.92c.307.145 2.769 1.05 2.389-3.711z" fill="#FFAE73"/><path d="M136.899 98.97l-1.198-3.23-22.754 6.987v3.114l23.952-6.871z" fill="#404367"/><path d="M131.357 43.75s-.145.525-.38 1.195c-.091.272-.163.58-.272.923-2.498-2.154-3.475-4.652-3.494-4.724 1.919 1.05 4.146 2.606 4.146 2.606z" fill="#C69474"/><path d="M130.054 49.688s1.755 2.697 1.846 3.856c.036.434-1.484.163-1.484.163l-.362-4.02z" fill="#F25B24"/><path d="M136.767 99.012s30.251 23.031 32.912 29.692c2.082 5.214-29.391 39.804-29.391 39.804s-4.562-5.34-5.196-8.146c0 0 13.154-18.226 20.431-29.449 2.951-4.544-35.408-8.563-37.146-9.45-7.186-3.692-2.805-16.527-2.805-16.527l21.195-5.924z" fill="#2D1686"/><path d="M138.181 109.298s-16.611 4.744-29.011 3.079c.398-1.503 1.52-14.898 1.104-41.545-.308-20.274 1.936-24.74 9.937-28.83.199.199 10.892 5.555 10.911 20.435 0 .887.38 5.054.38 5.054s-.181 5.723-.38 6.591c-.815 3.802.488 1.112 0 4.823-.181 1.321-.308 2.77-.163 4.055.163 1.466.344 2.86.543 4.2 2.281 15.024 6.679 22.138 6.679 22.138z" fill="#4E33B5"/><path d="M118.432 183.246h3.367c.036 0 .054-.036.054-.054v-55.9c0-.036-.036-.054-.054-.054h-3.367c-.036 0-.055.036-.055.054v55.882c0 .054.019.072.055.072z" fill="#7C9BC7"/><path d="M104.475 186.921c1.647-4.29 8.019-7.476 15.659-7.476 7.621 0 14.011 3.204 15.658 7.476h-31.317zm3.765-14.518h24.312a.039.039 0 00.036-.036l-1.032-2.191c0-.018-.453-.036 0-.036H108.24a.039.039 0 00-.036.036v2.191c0 .018.018.036.036.036z" fill="#7C9BC7"/><path d="M100.364 133.248h39.285c2.122 0 3.864-1.666 3.864-3.693v-5.557c0-2.028-1.742-3.693-3.864-3.693h-39.285c-2.121.018-3.864 1.665-3.864 3.711v5.557c0 2.009 1.743 3.675 3.864 3.675zm31.495-79.39s4.424 9.927 5.413 21.344c1.013 11.843.716 16.197.716 16.197l-1.483 3.27-1.334-3.754s.593-15.249-2.991-29.762c-.642-2.632-1.754-7.624-1.754-7.624l1.433.328z" fill="#F25B24"/><path d="M131.52 88.644c-1.937-.29-3.494-.58-4.381-.833-5.467-1.557-7.042-17.885-9.793-27.57-2.372-8.363 1.919-13.92 8.508-8.272.054.036.108.09.163.127 2.679 2.353 3.638 8.743 4.109 14.554-.254.85-.561 1.701-.76 2.57-.815 3.802 2.262 7.476 1.774 11.187-.181 1.322-.308 2.77-.163 4.055.163 1.448.344 2.842.543 4.182z" fill="#2C1C82"/><path d="M153.876 83.213s.833.416 1.919.272c1.068-.145 4.724-.525 5.268-.145.543.38 2.172 2.1 2.57 2.462.398.362.887 1.701.887 1.701-.452.236-1.394-.923-1.937-1.068-.543-.145-5.177.779-6.354.453-1.194-.326-2.95-1.123-2.95-1.123l.597-2.552z" fill="#FFAE73"/><path d="M160.99 85.62c-.018.073.923 2.119 2.191 1.956l-.833-1.557-1.358-.398zm-5.213-2.135s1.665-.797 2.262-1.231c0 0 .218.199.163.416-.09.362-.651.923-.651.923l-1.774-.108z" fill="#FFAE73"/><path d="M126.868 48.439c-6.608-5.648-12.4.145-10.011 8.49 2.752 9.684 5.666 26.447 11.133 28.004 3.892 1.104 21.017 2.245 25.959 2.118 0 0 .814-.887.144-4.833 0 0-19.985-2.879-22.193-8.943-.778-2.154.199-20.256-4.87-24.691a1.312 1.312 0 01-.162-.145z" fill="#4E33B5"/><path d="M122.548 41.126s4.762 6.706 8.031 8.653l-.397 4.63-9.089-12.126 1.455-1.157z" fill="#fff"/></svg>