<svg width="24" height="24" fill="none" xmlns="http://www.w3.org/2000/svg"><g clip-path="url(#clip0)" fill="#fff"><path d="M24 12c0-6.632-5.367-12-12-12C5.368 0 0 5.367 0 12c0 6.573 5.322 12 12 12 6.65 0 12-5.396 12-12zM12 1.406c5.842 0 10.594 4.753 10.594 10.594 0 2.137-.636 4.19-1.814 5.93-4.733-5.09-12.818-5.1-17.56 0A10.545 10.545 0 011.407 12C1.406 6.159 6.16 1.406 12 1.406zM4.098 19.055c4.208-4.72 11.598-4.72 15.805 0-4.223 4.723-11.581 4.725-15.805 0z"/><path d="M12 12.703a4.224 4.224 0 004.219-4.219V7.078A4.224 4.224 0 0012 2.86a4.224 4.224 0 00-4.219 4.22v1.405a4.224 4.224 0 004.22 4.22zM9.188 7.078A2.816 2.816 0 0112 4.266a2.816 2.816 0 012.813 2.812v1.406A2.816 2.816 0 0112 11.297a2.816 2.816 0 01-2.812-2.813V7.078z"/></g><defs><clipPath id="clip0"><path fill="#fff" d="M0 0h24v24H0z"/></clipPath></defs></svg>