<svg xmlns="http://www.w3.org/2000/svg" xmlns:xlink="http://www.w3.org/1999/xlink"><symbol id="icon-logo"><path d="M36.932 21.806l-7.252-.083c0-2.433.506-6.375 3.626-6.375s3.626 4.11 3.626 6.458zm48.905 9.562v-1.845h-5.986v3.354c0 .923-.422 2.013-1.518 2.013s-1.434-1.09-1.434-1.845V16.606h8.348v-6.542H76.9V0h-5.565c-.084 4.865-1.096 10.065-6.998 10.065h-2.531v1.006c-2.023-1.258-3.878-2.097-6.408-2.097-5.902 0-9.528 4.949-9.528 10.484 0 12.58 13.913 6.039 13.913 12.916 0 2.097-1.012 3.355-3.205 3.355-3.204 0-4.469-3.439-4.637-6.206h-5.903v11.406h5.903v-1.258c2.276 1.006 4.469 2.18 7.083 2.18 5.312 0 9.19-5.619 9.19-10.651 0-.587 0-1.09-.168-1.761-.675-4.194-3.204-7.38-7.42-8.22-2.361-.419-6.324-.419-6.324-3.606 0-1.426 1.096-2.852 2.53-2.852 3.12 0 4.384 2.684 4.384 5.368h5.734v-3.523h2.36v15.768c0 4.78 2.783 9.645 8.18 9.645 5.48 0 8.347-5.703 8.347-10.651zm-40.304-3.523c0-.168-.085-.42-.085-.587 0-.335.085-.755.085-1.09 0-7.549-3.205-17.278-12.395-17.278-.675 0-1.265.084-1.94.168-6.661.755-10.034 9.31-10.034 15.348 0 1.594.169 3.523.337 5.368h-4.553v3.523c0 .922-.337 2.264-1.518 2.264-1.18 0-1.602-1.09-1.602-2.013V16.774h8.01v-6.71h-8.094V0h-5.48v.503c0 5.284-2.446 9.73-8.264 9.73v6.709h5.987v14.677c0 5.787 2.192 11.071 8.853 11.071 4.216 0 7.673-3.858 8.01-7.8 1.687 4.278 5.903 7.13 10.625 7.13 7.251 0 11.046-5.872 11.72-12.497h-6.324c0 2.516-1.517 5.367-4.384 5.367-1.855 0-3.373-1.174-3.963-2.851-.422-.671-.675-1.846-.675-2.516v-1.678h15.684z" fill="#F25B24"/></symbol></svg>