<svg width="193" height="193" fill="none" xmlns="http://www.w3.org/2000/svg"><g opacity=".46"><path opacity=".46" d="M181.202 44.189H82.49a1.552 1.552 0 01-1.518-1.978l9.2-35.419c.184-.69.828-1.196 1.518-1.196h98.665c1.058 0 1.794.966 1.518 1.978l-9.199 35.419c-.138.736-.782 1.196-1.472 1.196z" fill="#BFD9FF"/><g opacity=".46"><path opacity=".46" d="M130.374 14.014h-34.36a.775.775 0 01-.782-.782c0-.414.368-.782.782-.782h34.36c.46 0 .782.368.782.782a.775.775 0 01-.782.782zm-2.622 15.823h-34.36a.775.775 0 01-.782-.782c0-.414.368-.782.782-.782h34.36c.46 0 .782.368.782.782a.806.806 0 01-.782.782zm14.444-5.979h-34.361a.775.775 0 01-.782-.782c0-.414.368-.782.782-.782h34.361c.46 0 .782.368.782.782a.806.806 0 01-.782.782zm-36.753-4.554H95.14a.775.775 0 01-.782-.782c0-.414.368-.782.782-.782h10.303c.46 0 .782.368.782.782a.775.775 0 01-.782.782zm-1.38 4.554H93.76a.775.775 0 01-.782-.782c0-.414.368-.782.782-.782h10.303c.46 0 .782.368.782.782a.806.806 0 01-.782.782zm44.02-9.844h-12.235a.775.775 0 01-.782-.782c0-.414.368-.782.782-.782h12.235c.46 0 .782.368.782.782a.806.806 0 01-.782.782z" fill="#A9C2FF"/><path opacity=".46" d="M141.828 36.783h-18.262a.418.418 0 01-.322-.138c-.092-.092-.092-.23-.092-.368l.828-3.128a.442.442 0 01.414-.322h18.262c.138 0 .23.046.322.138.092.092.092.23.092.368l-.828 3.128a.442.442 0 01-.414.322zm-18.124-.552h18.032l.736-2.898H124.44l-.736 2.898zm-4.599.552h-18.262a.418.418 0 01-.322-.138c-.092-.092-.092-.23-.092-.368l.828-3.128a.442.442 0 01.414-.322h18.262c.138 0 .23.046.322.138.092.092.092.23.092.368l-.828 3.128a.442.442 0 01-.414.322zm-18.124-.552h18.032l.736-2.898h-17.986l-.782 2.898z" fill="#84AEE5"/></g><path opacity=".46" d="M173.934 31.953c-.92-1.242-4.738-2.162-5.796-3.404-.552-.644-.552-1.84-.414-2.805.368-.23.69-.46.874-.69.322-.46.69-1.104 1.012-1.794.092.092.23.184.46.184.506 0 2.392-2.622 1.886-3.22-.276-.322-.736-.046-1.058.276.506-1.15.874-2.024.874-2.024.046-.138.092-.276.138-.46.736-3.036-1.104-5.474-4.094-5.474-3.036 0-6.071 2.438-6.853 5.474-.046.138-.046.276-.092.46 0 0-.092.874-.138 2.024-.184-.322-.46-.598-.92-.276-.782.598-.184 3.174.322 3.22.184 0 .368-.092.506-.184 0 .69.046 1.334.138 1.793.092.276.368.552.69.874-.368.966-.966 2.07-1.748 2.668-1.656 1.242-5.934 2.162-7.498 3.404-1.38 1.104-2.668 4.416-2.898 5.06h25.023c.046-.736.46-4.002-.414-5.106z" fill="#8DBCF8"/></g><path d="M163.998 72.661H65.333c-.598 0-1.104-.276-1.472-.736-.368-.46-.46-1.058-.322-1.61l9.2-35.418c.23-.828.965-1.38 1.793-1.38h98.666c.598 0 1.104.276 1.472.736.368.46.46 1.058.322 1.61l-9.2 35.372a1.827 1.827 0 01-1.794 1.426zM74.533 34.07c-.599 0-1.105.414-1.288.966l-9.2 35.418c-.092.414 0 .828.23 1.15.23.322.644.506 1.058.506h98.665c.598 0 1.15-.414 1.288-.966l9.2-35.372c.092-.414 0-.828-.23-1.15-.23-.322-.644-.506-1.058-.506H74.532v-.046z" fill="#7094D8"/><path d="M162.159 69.764H63.493a1.552 1.552 0 01-1.518-1.978l9.2-35.419c.184-.69.828-1.196 1.518-1.196h98.665c1.058 0 1.794.966 1.518 1.978l-9.2 35.419c-.138.69-.782 1.196-1.517 1.196z" fill="#B4CEFF"/><path d="M154.201 64.474H132.03c-1.012 0-1.656-.828-1.38-1.84l5.566-22.493c.276-1.012 1.288-1.84 2.3-1.84h22.171c1.012 0 1.656.828 1.38 1.84l-5.566 22.447c-.23 1.058-1.288 1.886-2.3 1.886z" fill="#B7DEFF"/><path d="M143.299 64.566l1.932-7.774-3.174-1.334s-5.934 2.162-6.439 2.714c-.414.46-2.576 4.968-3.22 6.44h10.901v-.046zm10.994 0c.046-1.472.184-5.98 0-6.44-.23-.506-5.106-2.714-5.106-2.714l-3.864 1.334-1.932 7.774h10.902v.046z" fill="#023F61"/><path d="M145.323 64.566l3.036-6.762-6.532.368-.644 6.394h4.14z" fill="#BEBECF"/><path d="M143.253 53.986l-1.426.92-.919 2.208-.276 3.082 2.023-.828 1.564 1.886 2.07-1.702 1.288 1.196 1.932-4.14-.368-2.53-.782-.368-5.106.276z" fill="#DEE0E8"/><path d="M143.667 48.099s-.46-1.104-1.472-.368c-.966.736.184 3.495.874 2.667.736-.828.598-2.3.598-2.3zm6.992-.046s.92-1.15 1.656-.506c.69.644-1.61 3.587-1.978 2.806-.414-.828.322-2.3.322-2.3zm-2.162 8.095l1.012-5.336-5.796.507-1.288 5.013s1.012 2.346 2.116 3.404c-.046 0 3.358-2.898 3.956-3.588z" fill="#F99352"/><path d="M153.189 45.89c-.23.645-.736.828-.782 1.197-.046.367-.276 1.333-.644 1.701-.368.368-.552.506-.552.506s-4.968 1.38-7.498-.552c0 0-.184-.735 0-1.61.184-.873-.23-1.011.23-1.471.506-.414.644-.828.644-1.288 0-.506.046-1.058.552-1.564s.966-.322 1.426-.736c0 0 .736-1.196 1.702-1.38.966-.138 2.99-.644 4.186.828 1.196 1.472.644 2.76 1.012 3.22.322.506-.276 1.15-.276 1.15z" fill="#713336"/><path d="M143.667 47.178s-2.346 6.486 2.07 6.946c3.91.092 5.29-4.692 5.842-7.13.552-2.437.23-5.013-2.898-4.921-3.128.092-4.692 3.633-5.014 5.105z" fill="#FFAE73"/><path d="M144.863 44.879s.276.506 0 1.058c-.276.506-1.012.736-1.104 1.426-.092.69-.414 2.115-.644 2.208-.184.046-.046-1.38-.046-1.886.046-.506.414-2.576 1.472-3.91s1.702-1.886 3.542-2.162c1.84-.322 3.266.46 3.772 1.61.506 1.15-.322 4.002-.322 4.002s.138-1.38-.322-1.702c-.46-.322-.828-.552-.782-.736.092-.184-1.472.506-3.036 0s-2.024-.276-2.3-.092a.518.518 0 00-.23.184z" fill="#713336"/><path d="M139.803 64.428l-.184-.092.46-.966-1.84-.92.046-.092c.828-2.024 2.116-5.06 2.162-5.198l.23.046c-.046.138-1.702 4.094-2.116 5.106l1.886.92-.644 1.196zm6.992-.046v-1.104l2.346-.92c.092-.966.414-5.014.414-5.152l.23.046c-.046.138-.276 3.174-.414 5.198v.092l-2.346.92v.966h-.23v-.046z" fill="#022755"/><path d="M154.201 64.704H132.03c-.552 0-1.058-.23-1.38-.644-.322-.414-.414-.966-.276-1.564l5.612-22.447c.276-1.15 1.426-2.07 2.576-2.07h22.171c.552 0 1.058.23 1.38.644.322.414.413.966.275 1.564l-5.611 22.493c-.276 1.104-1.426 2.024-2.576 2.024zm-15.685-26.127c-.92 0-1.84.736-2.07 1.656L130.88 62.68c-.092.414-.046.828.184 1.104.23.276.552.414.966.414h22.171c.92 0 1.84-.736 2.07-1.656l5.612-22.447c.092-.414.046-.828-.184-1.104-.23-.276-.552-.414-.966-.414h-22.217z" fill="#fff"/><path d="M111.377 40.417h-34.36a.775.775 0 01-.782-.782c0-.414.368-.782.782-.782h34.36c.46 0 .782.368.782.782a.806.806 0 01-.782.782zm-2.668 15.869h-34.36a.775.775 0 01-.782-.782c0-.414.368-.782.782-.782h34.36c.46 0 .782.368.782.782a.775.775 0 01-.782.782zm14.443-6.026h-34.36a.775.775 0 01-.782-.782c0-.414.368-.782.782-.782h34.36c.46 0 .782.368.782.782a.775.775 0 01-.782.782zm-36.706-4.553H76.142a.775.775 0 01-.781-.782c0-.414.367-.782.781-.782h10.304c.46 0 .782.368.782.782a.806.806 0 01-.782.782zM85.02 50.26H74.717a.775.775 0 01-.782-.782c0-.414.368-.782.782-.782H85.02c.46 0 .782.368.782.782a.775.775 0 01-.782.782zm44.02-9.843h-12.235a.775.775 0 01-.782-.782c0-.414.368-.782.782-.782h12.235c.46 0 .782.368.782.782a.775.775 0 01-.782.782z" fill="#73A5FF"/><path d="M122.83 63.186h-18.307a.418.418 0 01-.322-.138c-.092-.092-.092-.23-.092-.368l.828-3.128a.442.442 0 01.414-.322h18.261c.138 0 .23.046.322.138.092.092.092.23.092.368l-.828 3.128c-.046.184-.184.322-.368.322zm-18.123-.552h18.031l.736-2.898h-18.031l-.736 2.898zm-4.6.552h-18.26a.418.418 0 01-.323-.138c-.092-.092-.092-.23-.092-.368l.828-3.128a.442.442 0 01.414-.322h18.261c.138 0 .23.046.322.138.092.092.092.23.092.368l-.828 3.128c-.092.184-.23.322-.414.322zm-18.123-.552h18.031l.736-2.898H82.72l-.736 2.898z" fill="#7094D8"/><path d="M160.677 116.238H68.1a1.456 1.456 0 01-1.424-1.856l8.632-33.233c.172-.647.776-1.122 1.424-1.122h92.577c.993 0 1.684.906 1.425 1.856l-8.632 33.233c-.13.69-.734 1.122-1.425 1.122z" fill="#F25B24"/><path d="M113.029 87.925h-32.24a.727.727 0 01-.734-.733c0-.389.345-.734.734-.734h32.24c.432 0 .734.345.734.734a.757.757 0 01-.734.733zm-2.503 14.847h-32.24a.727.727 0 01-.734-.733c0-.389.345-.734.733-.734h32.241c.431 0 .733.345.733.734a.727.727 0 01-.733.733zm13.552-5.61h-32.24a.727.727 0 01-.734-.734c0-.389.345-.734.734-.734h32.24c.432 0 .734.345.734.734a.727.727 0 01-.734.734zm-34.442-4.273H79.97a.727.727 0 01-.734-.734c0-.388.345-.734.734-.734h9.668c.431 0 .733.346.733.734a.756.756 0 01-.734.734zm-1.337 4.273H78.63a.727.727 0 01-.734-.734c0-.389.346-.734.734-.734h9.668c.431 0 .733.345.733.734a.727.727 0 01-.733.734zm41.304-9.237h-11.481a.727.727 0 01-.734-.733c0-.389.346-.734.734-.734h11.481c.431 0 .733.345.733.734a.727.727 0 01-.733.733zm-5.827 21.321h-17.135a.394.394 0 01-.302-.129c-.086-.087-.086-.216-.086-.346l.777-2.934a.415.415 0 01.388-.303h17.135c.129 0 .215.044.302.13.086.086.086.216.086.345l-.777 2.935c-.086.216-.216.302-.388.302zm-17.005-.475h16.918l.691-2.719h-16.919l-.69 2.719zm-4.316.475H85.321a.392.392 0 01-.302-.129c-.087-.087-.087-.216-.087-.346l.777-2.934a.415.415 0 01.389-.303h17.134c.13 0 .216.044.302.13.086.086.086.216.086.345l-.776 2.935c-.087.216-.216.302-.389.302zm-17.005-.475h16.919l.69-2.719H86.141l-.69 2.719zm68.451-4.013c-.863-1.166-4.445-2.029-5.438-3.194-.518-.604-.518-1.727-.388-2.633.345-.216.647-.432.82-.647a11.7 11.7 0 00.949-1.684.577.577 0 00.432.173c.475 0 2.244-2.46 1.77-3.021-.259-.302-.691-.043-.993.259.475-1.08.82-1.9.82-1.9.043-.129.086-.258.129-.43.691-2.85-1.035-5.137-3.841-5.137-2.848 0-5.697 2.288-6.431 5.136-.043.13-.043.26-.086.432 0 0-.086.82-.129 1.899-.173-.302-.432-.561-.864-.26-.733.562-.172 2.979.302 3.022.173 0 .346-.086.475-.173 0 .648.043 1.252.13 1.684.086.259.345.517.647.82-.345.906-.906 1.942-1.64 2.503-1.554 1.165-5.568 2.028-7.035 3.194-1.295 1.036-2.503 4.143-2.719 4.747h23.479c.043-.69.388-3.755-.389-4.79z" fill="#fff" fill-opacity=".64"/><g opacity=".46"><path opacity=".46" d="M157.822 159H69.609a1.387 1.387 0 01-1.357-1.768l8.225-31.667c.164-.616.74-1.069 1.357-1.069h88.213c.946 0 1.604.864 1.358 1.769l-8.225 31.666c-.124.658-.7 1.069-1.358 1.069z" fill="#BFD9FF"/><g opacity=".46"><path opacity=".46" d="M112.42 132.022H81.7a.693.693 0 01-.7-.699.72.72 0 01.7-.699h30.72c.411 0 .699.329.699.699a.72.72 0 01-.699.699zm-2.385 14.147h-30.72a.693.693 0 01-.7-.699.72.72 0 01.7-.699h30.72c.411 0 .699.329.699.699 0 .37-.288.699-.699.699zm12.913-5.346h-30.68a.693.693 0 01-.699-.699.72.72 0 01.7-.699h30.72c.411 0 .699.329.699.699 0 .37-.329.699-.74.699zm-32.818-4.071h-9.212a.693.693 0 01-.7-.7.72.72 0 01.7-.699h9.212c.411 0 .699.329.699.699a.72.72 0 01-.7.7zm-1.275 4.071h-9.212a.693.693 0 01-.7-.699.72.72 0 01.7-.699h9.212c.411 0 .7.329.7.699 0 .37-.289.699-.7.699zm39.357-8.801h-10.94a.693.693 0 01-.699-.699.72.72 0 01.699-.699h10.94c.411 0 .699.329.699.699 0 .37-.288.699-.699.699z" fill="#A9C2FF"/><path opacity=".46" d="M122.66 152.338h-16.327a.376.376 0 01-.288-.123c-.082-.083-.082-.206-.082-.329l.74-2.797a.397.397 0 01.371-.288H123.4a.37.37 0 01.288.124c.082.082.082.205.082.329l-.74 2.796c-.082.206-.205.288-.37.288zm-16.203-.452h16.121l.658-2.591h-16.121l-.658 2.591zm-4.113.452H86.018a.374.374 0 01-.288-.123c-.083-.083-.083-.206-.083-.329l.74-2.797a.396.396 0 01.37-.288h16.328a.37.37 0 01.287.124c.083.082.083.205.083.329l-.741 2.796c-.082.206-.205.288-.37.288zm-16.203-.452h16.121l.658-2.591H86.799l-.658 2.591z" fill="#84AEE5"/></g><path opacity=".46" d="M151.366 148.061c-.823-1.11-4.236-1.933-5.182-3.043-.494-.576-.494-1.645-.37-2.509.329-.206.617-.411.781-.617.288-.411.617-.987.905-1.604a.55.55 0 00.411.165c.453 0 2.139-2.344 1.686-2.879-.246-.288-.658-.041-.946.247.453-1.028.782-1.81.782-1.81.041-.123.082-.247.123-.411.658-2.714-.987-4.894-3.66-4.894-2.714 0-5.429 2.18-6.128 4.894-.041.123-.041.247-.082.411 0 0-.082.782-.123 1.81-.165-.288-.412-.535-.823-.247-.699.535-.164 2.838.288 2.879.165 0 .329-.083.452-.165 0 .617.042 1.193.124 1.604.082.247.329.494.617.781-.329.864-.864 1.851-1.563 2.386-1.481 1.11-5.305 1.933-6.703 3.043-1.234.987-2.386 3.948-2.591 4.524h22.372c.041-.658.37-3.578-.37-4.565z" fill="#8DBCF8"/></g><g opacity=".46"><path opacity=".46" d="M157.822 159H69.609a1.387 1.387 0 01-1.357-1.768l8.225-31.667c.164-.616.74-1.069 1.357-1.069h88.213c.946 0 1.604.864 1.358 1.769l-8.225 31.666c-.124.658-.7 1.069-1.358 1.069z" fill="#BFD9FF"/><g opacity=".46"><path opacity=".46" d="M112.42 132.022H81.7a.693.693 0 01-.7-.699.72.72 0 01.7-.699h30.72c.411 0 .699.329.699.699a.72.72 0 01-.699.699zm-2.385 14.147h-30.72a.693.693 0 01-.7-.699.72.72 0 01.7-.699h30.72c.411 0 .699.329.699.699 0 .37-.288.699-.699.699zm12.913-5.346h-30.68a.693.693 0 01-.699-.699.72.72 0 01.7-.699h30.72c.411 0 .699.329.699.699 0 .37-.329.699-.74.699zm-32.818-4.071h-9.212a.693.693 0 01-.7-.7.72.72 0 01.7-.699h9.212c.411 0 .699.329.699.699a.72.72 0 01-.7.7zm-1.275 4.071h-9.212a.693.693 0 01-.7-.699.72.72 0 01.7-.699h9.212c.411 0 .7.329.7.699 0 .37-.289.699-.7.699zm39.357-8.801h-10.94a.693.693 0 01-.699-.699.72.72 0 01.699-.699h10.94c.411 0 .699.329.699.699 0 .37-.288.699-.699.699z" fill="#A9C2FF"/><path opacity=".46" d="M122.66 152.338h-16.327a.376.376 0 01-.288-.123c-.082-.083-.082-.206-.082-.329l.74-2.797a.397.397 0 01.371-.288H123.4a.37.37 0 01.288.124c.082.082.082.205.082.329l-.74 2.796c-.082.206-.205.288-.37.288zm-16.203-.452h16.121l.658-2.591h-16.121l-.658 2.591zm-4.113.452H86.018a.374.374 0 01-.288-.123c-.083-.083-.083-.206-.083-.329l.74-2.797a.396.396 0 01.37-.288h16.328a.37.37 0 01.287.124c.083.082.083.205.083.329l-.741 2.796c-.082.206-.205.288-.37.288zm-16.203-.452h16.121l.658-2.591H86.799l-.658 2.591z" fill="#84AEE5"/></g><path opacity=".46" d="M151.366 148.061c-.823-1.11-4.236-1.933-5.182-3.043-.494-.576-.494-1.645-.37-2.509.329-.206.617-.411.781-.617.288-.411.617-.987.905-1.604a.55.55 0 00.411.165c.453 0 2.139-2.344 1.686-2.879-.246-.288-.658-.041-.946.247.453-1.028.782-1.81.782-1.81.041-.123.082-.247.123-.411.658-2.714-.987-4.894-3.66-4.894-2.714 0-5.429 2.18-6.128 4.894-.041.123-.041.247-.082.411 0 0-.082.782-.123 1.81-.165-.288-.412-.535-.823-.247-.699.535-.164 2.838.288 2.879.165 0 .329-.083.452-.165 0 .617.042 1.193.124 1.604.082.247.329.494.617.781-.329.864-.864 1.851-1.563 2.386-1.481 1.11-5.305 1.933-6.703 3.043-1.234.987-2.386 3.948-2.591 4.524h22.372c.041-.658.37-3.578-.37-4.565z" fill="#8DBCF8"/></g><path d="M56.915 19.672h-1.794c-.46 0-.736-.368-.598-.828l.46-1.794c.092-.46.552-.828 1.012-.828h1.794c.46 0 .736.368.598.828l-.46 1.794c-.092.46-.552.828-1.012.828z" fill="#BFD9FF"/><path d="M55.582 24.962h-1.794c-.46 0-.736-.368-.598-.828l.46-1.794c.092-.46.552-.828 1.012-.828h1.794c.46 0 .736.368.598.828l-.46 1.794c-.092.46-.552.828-1.012.828z" fill="#EDF4FF"/><path d="M61.331 24.962h-1.794c-.46 0-.736-.368-.598-.828l.46-1.794c.092-.46.552-.828 1.012-.828h1.794c.46 0 .736.368.598.828l-.46 1.794c-.092.46-.552.828-1.012.828z" fill="#BFD9FF"/><path d="M67.081 24.962h-1.794c-.46 0-.736-.368-.598-.828l.46-1.794c.092-.46.552-.828 1.012-.828h1.794c.46 0 .736.368.598.828l-.46 1.794c-.092.46-.552.828-1.012.828zM54.248 30.39h-1.794c-.46 0-.736-.369-.598-.829l.46-1.794c.092-.46.552-.828 1.012-.828h1.794c.46 0 .736.368.598.828l-.46 1.794c-.092.46-.552.828-1.012.828zm-1.472 5.75h-1.794c-.46 0-.736-.369-.598-.829l.46-1.794c.092-.46.552-.828 1.012-.828h1.794c.46 0 .736.368.598.828l-.46 1.794c-.092.46-.552.828-1.012.828zm7.221-5.75h-1.794c-.46 0-.736-.369-.598-.829l.46-1.794c.093-.46.553-.828 1.012-.828h1.794c.46 0 .736.368.598.828l-.46 1.794c-.092.46-.552.828-1.012.828z" fill="#EDF4FF"/><path d="M57.468 40.463h-1.794c-.46 0-.736-.368-.598-.828l.46-1.794c.092-.46.551-.828 1.011-.828h1.794c.46 0 .736.368.598.828l-.46 1.794c-.092.46-.551.828-1.011.828z" fill="#BFD9FF"/><path d="M85.894 9.138c-.046 0-.046 0 0 0h-.643c-5.336 0-10.764 4.278-12.19 9.614l-.046.276v.092l-.046.184c-1.196 5.382 2.3 9.706 7.866 9.476 5.06-.184 10.165-4.232 11.683-9.246 1.518-5.52-1.472-10.028-6.624-10.396zm3.68 10.166c-1.058 3.542-4.737 6.44-8.325 6.532-3.864.138-6.256-2.852-5.474-6.624l.092-.46c1.012-3.726 4.83-6.716 8.602-6.716.184 0 .368 0 .552.046 3.633.276 5.703 3.404 4.553 7.222z" fill="#EBEDFC"/><path d="M85.342 10.793c-.184.645.138 1.242.736 1.426 2.944.782 4.508 3.68 3.45 7.084-1.058 3.542-4.738 6.44-8.326 6.532-3.541.092-5.841-2.392-5.611-5.658.046-.69-.414-1.15-1.15-1.15-.874 0-1.794.828-1.84 1.702-.322 4.692 2.99 8.234 8.05 8.05 5.06-.184 10.165-4.232 11.683-9.246 1.472-4.83-.736-8.97-4.922-10.073-.782-.276-1.84.414-2.07 1.333z" fill="#A5C5FF"/><path d="M110.273 8.172s-.046 0 0 0h-.69c-5.428 0-10.902 4.37-12.236 9.798-1.334 5.428 1.932 9.797 7.36 9.797h.69c5.152-.367 10.212-4.553 11.546-9.705 0-.046 0-.046.046-.092 1.241-5.244-1.702-9.476-6.716-9.798zm-4.37 16.652h-.506c-3.818 0-6.118-3.082-5.198-6.9.92-3.818 4.83-6.9 8.648-6.9h.506c3.542.23 5.612 3.22 4.692 6.9 0 .046 0 .046-.046.092-.92 3.634-4.462 6.578-8.096 6.808z" fill="#fff"/><path d="M113.631 19.212c-1.196 2.76-3.956 4.968-6.854 5.474-.736.138-1.38.736-1.564 1.425-.23.92.414 1.61 1.38 1.426 4.14-.735 8.004-3.863 9.752-7.82.368-.873-.092-1.701-1.012-1.701-.69 0-1.426.506-1.702 1.196z" fill="#BFD9FF"/><path d="M84.238 42.67H65.977c-.092 0-.138-.091-.138-.183l.828-3.128c0-.046.092-.092.138-.092h18.261c.092 0 .138.092.138.184l-.828 3.128c0 .046-.046.092-.138.092z" fill="#EDF4FF"/><path d="M169.031 57.257c3.808-3.363 4.769-8.498 2.146-11.468-2.623-2.97-7.837-2.653-11.646.71-3.808 3.363-4.769 8.497-2.146 11.468 2.623 2.97 7.837 2.653 11.646-.71zm7.249 3.307c-.322 1.242-1.564 2.208-2.76 2.208-1.242 0-1.978-1.012-1.656-2.208.322-1.242 1.564-2.208 2.76-2.208 1.196 0 1.932 1.012 1.656 2.208z" fill="#F25B24"/><path d="M162.204 56.01c-.276 0-.506-.092-.644-.276l-2.115-2.806c-.276-.368-.138-1.012.368-1.426.506-.368 1.104-.368 1.426 0l1.563 2.07 5.612-4.462c.506-.367 1.104-.367 1.426 0 .276.368.138 1.012-.368 1.426l-6.532 5.152c-.23.184-.506.322-.736.322z" fill="#fff"/><path d="M25.665 180.418s.79-1.627 3.516-1.11c2.725.517 3.033 1.108 3.317 2.524.282 1.464 1.164 3.043 1.806 3.353.64.358 2.911 2.075 4.804 2.47 1.893.396 2.089 1.615 1.61 2.135-.434.521-7.641.794-9.212.505 0 0-5.38-.255-6.667-.729-1.194-.472.718-8.618.826-9.148z" fill="#2D2737"/><path d="M23.744 141.439s-.655-4.581 3.985-5.997c4.687-1.416 5.503.841 6.771 5.1 1.27 4.211-2.377 39.823-2.377 39.823s-5.365.813-6.686-.099c0 0-3.355-23.345-2.89-29.689.467-6.393 1.197-9.138 1.197-9.138z" fill="#2D1686"/><path d="M24.922 178.843s6.048-.356 7.961-.64l-.177 2.858s-4.805.733-7.716.21l-.068-2.428zm.843-126.566s-3.807.242-6.128 9.314c-2.322 9.071-3.807 20.131-2.972 22.993.836 2.862 9.936 10.624 13.325 10.624 3.39 0 3.621-2.668 2.971-4.85-.65-2.232-7.196-8.2-7.196-8.2s5.293-17.705 5.06-22.362c-.232-4.657-2.739-7.52-5.06-7.52z" fill="#4E33B5"/><path d="M73.492 49.56l-.65.048 1.44-2.91s3.62-.243 4.178 1.358l-1.672 3.832-3.296-2.328zm2.042-8.295s-.139-3.008.882-3.396c1.022-.388 2.136.34 2.136.34s1.671-.194 2.182.582c.51.776.464 1.843.464 1.843s.929.194 1.161 1.164c.232.922-.186 2.717-.186 2.717s-1.067 1.358-2.321 1.019c-1.207-.34-4.318-4.27-4.318-4.27z" fill="#FFAE73"/><path d="M73.631 43.642s-.371-3.93 0-4.415c.418-.533 4.55-6.5 4.55-6.5s.836 1.019.371 2.183c-.51 1.164-2.46 4.705-2.46 4.705v3.008s-1.254.922-2.46 1.019z" fill="#FFAE73"/><path d="M73.956 46.795s-.975-6.306-.325-7.18c.696-.873 3.992-.34 4.596-.097.65.243 2.368 2.62 2.6 3.542.232.921-1.393 4.268-2.414 4.996-.929.728-3.9-.048-4.457-1.261z" fill="#FFAE73"/><path d="M71.635 50.967l1.254-2.426s2.97-.533 4.457 1.892c.417.873.232.873.232.873l-.975 1.99-4.968-2.33z" fill="#DEE0E8"/><path d="M40.648 26.78s2.588.72 4.094 5.118c1.468 4.398.502 13.703-.502 14.802-1.004 1.1-3.978.677-8.11-.803-4.404-1.65-5.871-6.64-6.644-9.897-1.506-6.301 3.476-12.772 11.162-9.22z" fill="#FFAE73"/><path d="M31.301 50.93l2.124-8.29s4.21-1.353 6.875 1.734l.889 1.354v5.413c-.04 0-4.442.973-9.888-.211z" fill="#FFAE73"/><path d="M22.5 103.358s-1.904 11.594 0 24.885c1.61 24.484 5.611 16.999 9.093 16.999s4.557-13.021 5.16-17.678c.65-4.657 3.157-20.568-1.578-24.206-4.736-3.639-10.121-3.978-12.675 0z" fill="#2D1686"/><path d="M37.635 117.92s-4.335-9.786 2.295-14.522c6.63-4.736 11.698-4.116 13.366 3.481 1.669 7.597 2.304 33.835.139 39.148-9.488 9.946-9.799-3.582-15.8-28.107z" fill="#2D1686"/><path d="M45.746 27.161s1.236 1.776.502 3.849c-.733 2.072-3.514 2.876-3.514 2.876s.888 1.353 0 3.299l-.618 1.1s.888 2.199.618 2.748c-.232.55-1.12.423-1.12.423s-1.004-3.087-1.39-2.791c-.387.254-1.391 1.65-1.391 2.876s.386 2.2.116 3.003c-.232.803-4.133.803-5.755.55-1.622-.254-4.133-5.752-4.75-8.205 0 0-.889-3.426.386-6.302 0 0-.232-2.453 1.892-4.948 2.124-2.453 8.883-1.65 10.003-.677 0 0-.115-1.353 1.12-1.1 1.275.296 3.129 1.523 3.901 3.3z" fill="#232729"/><path d="M42 39.638s-.386-1.777-1.738-.973c-1.39.803.231 5.075 1.39 4.78 1.082-.255.58-3.13.348-3.807z" fill="#F99352"/><path d="M28.875 51.986s.697-2.62 1.347-2.814c.65-.243 8.45-1.116 12.72 1.552 1.904 1.553 1.672 2.668 1.672 2.668s-12.628-2.522-15.739-1.407z" fill="#fff"/><path d="M27.25 51.403s13.14-.873 22.425 3.299c4.225 2.232 13.928 12.225 13.928 12.225l7.614-16.59s4.272-1.602 5.99 2.619c0 0-4.83 19.598-8.822 25.759-2.553 2.231-17.097-7.306-17.097-7.306s-.617 7.067-.617 16.932c0 9.864 4.932 22.536 4.932 22.536s-10.977 1.666-20.76 1.895c-8.99-1.113-15.008-1.895-15.008-1.895s4.3-27.575 3.881-30.68c-.418-3.105-3.244-19.286-2.826-21.517.465-2.183 2.368-6.404 6.36-7.277z" fill="#4E33B5"/><path d="M42.705 181.035s.724-1.658 3.468-1.254c2.744.405 3.076.983 3.417 2.386.342 1.451 1.29 2.992 1.943 3.276.654.332 2.994 1.953 4.902 2.27 1.907.317 2.154 1.527 1.696 2.066-.412.539-7.602 1.109-9.183.885 0 0-5.386-.033-6.691-.454-1.259-.422.362-8.591.448-9.175z" fill="#3E3343"/><path d="M43.548 142.215s-.38-4.653 4.39-5.68c4.77-1.075 5.4 1.246 6.426 5.552 1.026 4.305-4.918 39.548-4.918 39.548s-5.38.403-6.693-.6c0 0-1.857-23.556-1.003-29.873.854-6.268 1.798-8.947 1.798-8.947z" fill="#2D1686"/><path d="M42.294 181.622s4.147 1.164 7.62.444l.295-2.526-8.037-.439.122 2.521z" fill="#4E33B5"/><path d="M76 39.033a.346.346 0 01-.187-.097.242.242 0 010-.34l1.3-1.212h.093c.047 0 .975 0 1.532.68.093.096.093.242-.046.339-.093.097-.232.048-.325-.049-.325-.388-.836-.485-1.068-.485l-1.16 1.116c-.047.048-.093.048-.14.048z" fill="#F99352"/><path d="M81.153 40.828h-.093c-.14-.049-.186-.194-.14-.34 0 0 .14-.436-.046-1.212-.14-.582-1.114-.97-1.578-1.116-.697.388-1.486.825-1.626.97-.046.049-.092.097-.185.097-.14 0-.232-.097-.232-.242 0-.194 0-.243 1.903-1.31l.093-.049h.093c.186.049 1.764.485 2.043 1.456.232.921.046 1.455.046 1.504-.093.194-.186.242-.278.242z" fill="#F99352"/><path d="M80.178 45.873h-.047c-.14 0-.232-.097-.232-.242 0-.146.093-.243.232-.243h.047c1.021 0 1.718-.825 1.857-.97.046-.194.325-1.116.325-2.038 0-.776-.465-1.26-.604-1.358-.975-.048-1.996-.097-2.135-.097-.14.049-.233-.048-.279-.145-.046-.146.046-.291.186-.34.046 0 .139-.048 2.321.097h.046l.047.049c.046.048.882.63.882 1.843-.046 1.116-.371 2.183-.371 2.231l-.047.049c-.046-.049-.836 1.164-2.228 1.164z" fill="#F99352"/><path d="M78.46 48.299c-.093 0-.14-.049-.186-.097-.093-.097-.046-.291.093-.34 1.114-.727 1.625-2.183 1.95-3.153.093-.243.14-.485.232-.63.279-.631.093-1.02.093-1.02-.046-.096-.046-.29.093-.339.093-.048.232-.048.325.097.046.049.325.582-.047 1.455-.046.146-.139.34-.232.583-.325 1.018-.882 2.57-2.135 3.395-.093.049-.14.049-.186.049z" fill="#F99352"/></svg>